<svg width="675" height="398" viewBox="0 0 675 398" fill="none" xmlns="http://www.w3.org/2000/svg">
<path d="M312.381 368.146C311.816 365.602 310.877 363.155 309.596 360.885C308.305 359.026 306.771 357.347 305.036 355.894C299.989 351.313 293.793 346.663 287.103 347.819C285.034 348.277 283.035 349.007 281.158 349.991C280.183 350.444 279.202 350.896 278.199 351.279C275.377 352.459 272.258 352.731 269.274 352.059C267.742 351.648 266.315 350.91 264.805 350.451C264.088 350.236 263.354 350.077 262.612 349.978C264.072 349.325 265.488 348.578 266.852 347.743C274.352 343.148 280.343 334.843 279.508 325.96C279.098 322.985 278.317 320.074 277.183 317.293L274.51 309.9C273.354 306.7 272.157 303.433 270.048 300.773C267.579 297.898 264.44 295.674 260.908 294.299C253.494 291.076 245.391 289.941 237.392 288.841L236.835 288.764V202.351C236.835 200.874 236.248 199.458 235.204 198.413C234.16 197.369 232.743 196.782 231.266 196.782H220.754C220.287 193.942 219.823 191.106 219.362 188.275C218.039 180.193 216.668 171.964 212.944 164.689C210.507 159.927 206.63 155.381 201.402 154.449C200.375 154.355 199.365 154.119 198.402 153.749C196.87 152.997 196.035 151.326 194.859 150.094C191.824 146.913 186.888 146.864 182.823 145.221C179.231 143.794 176.293 141.107 173.023 139.039C169.753 136.971 165.686 135.503 162.066 136.846C162.055 137.11 162.029 137.372 161.989 137.633L159.664 136.561C157.092 135.533 154.703 134.094 152.591 132.301C150.008 129.864 148.63 126.634 147.558 123.201C147.447 122.846 147.342 122.501 147.231 122.122C151.681 117.582 154.693 111.831 155.891 105.588L156.455 107.419C156.582 107.83 156.731 108.235 156.901 108.63C157.189 109.395 157.668 110.073 158.293 110.6C158.471 110.74 158.668 110.855 158.878 110.941C159.071 111.017 159.272 111.069 159.478 111.094C159.767 111.13 160.06 111.108 160.341 111.031C160.812 110.885 161.244 110.636 161.605 110.301C161.966 109.966 162.248 109.554 162.429 109.096C162.54 108.822 162.622 108.538 162.673 108.247C162.7 108.072 162.716 107.895 162.722 107.718V106.994C162.725 106.877 162.714 106.76 162.687 106.646V106.465C162.678 106.326 162.654 106.188 162.617 106.054C162.589 105.922 162.617 105.977 162.617 105.943C162.582 105.769 162.54 105.588 162.506 105.414V105.282C162.506 105.24 162.443 104.997 162.406 104.85C162.369 104.703 162.357 104.662 162.336 104.565V104.523C162.266 104.245 162.204 103.973 162.141 103.695C161.635 101.279 161.506 98.7994 161.758 96.344C162.175 92.7404 162.84 89.1699 163.749 85.658L163.895 85.024C163.951 84.78 164.006 84.537 164.055 84.286C164.166 83.786 164.278 83.286 164.382 82.775L164.633 81.494L164.821 80.352V80.21C165.212 77.6229 165.294 74.9985 165.065 72.392C164.877 68.7732 163.499 65.3176 161.146 62.562C159.399 60.62 157.094 59.186 155.472 57.146C153.954 55.239 153.098 52.886 151.525 51.013C147.181 45.827 136.025 41.831 129.186 41.135C121.347 40.341 108.686 42.346 102.363 46.976C100.024 48.682 98.423 51.153 96.7941 53.492C93.8011 57.843 90.4031 62.187 85.6071 64.63C83.7971 65.549 81.722 66.245 80.5181 67.846C79.8015 68.9314 79.3375 70.1636 79.16 71.452C78.2378 75.9848 77.7575 80.5964 77.7261 85.222V86.962C77.7404 88.6962 78.11 90.4092 78.8121 91.995C78.9231 92.232 79.049 92.461 79.181 92.695L79.2651 92.841C80.1072 94.0446 80.8522 95.3132 81.4931 96.635C81.6527 97.0053 81.7672 97.3934 81.834 97.791C81.9533 98.8108 81.8872 99.8437 81.6391 100.84C81.6225 100.995 81.5924 101.149 81.5491 101.299L81.4861 101.599C81.4952 101.704 81.4759 101.81 81.4301 101.905C81.3741 102.205 81.3301 102.505 81.2841 102.796C81.1784 103.601 81.2304 104.42 81.4371 105.205C81.5324 105.642 81.7194 106.055 81.9857 106.415C82.252 106.775 82.5916 107.074 82.9821 107.293C83.3786 107.483 83.8007 107.615 84.235 107.683C84.674 107.76 85.1191 107.808 85.5511 107.906C86.106 108.033 86.642 108.232 87.1451 108.498C87.6272 108.729 88.0788 109.019 88.4891 109.361C88.6921 109.546 88.885 109.741 89.067 109.946C89.4349 110.367 89.7657 110.819 90.056 111.297C90.2047 111.543 90.3441 111.794 90.4741 112.049C90.9728 113.057 91.3713 114.111 91.664 115.196C91.845 115.843 91.998 116.496 92.1301 117.152C92.1931 117.444 92.2481 117.737 92.2971 118.022C92.3461 118.307 92.397 118.6 92.4361 118.885C92.626 118.874 92.8135 118.837 92.9931 118.774C93.4986 118.498 93.9341 118.11 94.2659 117.639C94.5978 117.168 94.8171 116.628 94.9071 116.059C94.9631 115.864 95.0071 115.676 95.0531 115.488C95.2131 114.788 95.3801 114.026 95.5401 113.295C98.2828 119.122 102.706 123.995 108.24 127.288C108.435 127.866 108.623 128.437 108.79 129.021C109.702 132.175 110.141 135.474 108.56 138.231C107.357 140.114 105.543 141.526 103.422 142.231C103.117 141.824 102.724 141.491 102.273 141.256C100.442 140.337 98.2421 141.451 96.7041 142.822C93.9191 145.342 91.6501 148.955 87.9881 149.783C86.6651 150.089 85.2031 150.027 84.1031 150.834C83.3767 151.518 82.7684 152.318 82.3031 153.201C81.5083 154.342 80.4397 155.265 79.1952 155.885C77.9508 156.505 76.5705 156.803 75.181 156.751C73.907 156.688 72.396 156.396 71.526 157.329C70.879 158.029 70.826 159.129 70.134 159.786C69.201 160.705 67.6701 160.259 66.3681 160.204C65.1214 160.236 63.9021 160.577 62.8199 161.196C61.7377 161.816 60.8264 162.695 60.1681 163.754C58.8685 165.908 57.9278 168.259 57.3831 170.715V170.757C57.2045 170.887 57.0348 171.029 56.875 171.182C56.2003 171.901 55.6772 172.749 55.3371 173.674C49.7073 186.491 46.3844 200.202 45.5211 214.174C45.5346 214.855 45.3815 215.529 45.0751 216.137C44.7637 216.535 44.4216 216.907 44.052 217.251C43.7212 217.656 43.4751 218.123 43.3282 218.625C43.1813 219.127 43.1368 219.653 43.1971 220.172C43.2575 220.692 43.4215 221.194 43.6795 221.649C43.9375 222.103 44.2842 222.502 44.6991 222.82C44.8993 222.457 45.1502 222.124 45.444 221.831C45.367 222.151 45.2981 222.464 45.2491 222.75C44.9693 224.781 44.9435 226.839 45.1721 228.876C45.8314 238.548 46.4981 248.213 47.1721 257.871C47.3601 260.607 47.5481 263.336 47.7991 266.065C48.2864 271.346 48.9824 276.607 49.8871 281.847C49.9257 282.083 49.9768 282.317 50.0401 282.547C44.3661 284.347 39.3191 287.608 37.1961 293.047C36.4581 294.927 36.1241 296.973 35.2191 298.776C34.2191 300.753 32.5881 302.333 31.5021 304.269C29.6291 307.597 29.5461 311.676 30.2281 315.407C31.5441 322.682 35.4771 329.184 40.6701 334.475H39.97C38.2732 334.663 36.6444 335.247 35.215 336.181C24.2301 342.599 17.9501 356.369 20.2411 368.942C20.5746 371.433 21.5698 373.789 23.1231 375.764C24.4894 377.251 26.2451 378.325 28.1911 378.864C29.4081 379.232 30.6614 379.466 31.9291 379.564C40.4921 380.264 48.7831 376.292 57.3661 375.958C60.2096 375.914 63.0532 376.047 65.8801 376.358C70.0134 376.701 74.1554 376.919 78.306 377.012C85.052 377.172 88.8461 375.376 93.1481 370.336C94.2053 369.082 95.088 367.691 95.772 366.201C99.4341 365.992 103.478 365.672 106.402 365.435L106.444 365.835C106.604 367.227 106.844 368.828 107.962 369.706C108.589 370.138 109.301 370.43 110.05 370.562C117.081 372.289 124.196 374.043 131.436 374.043C134.834 373.974 138.225 373.714 141.593 373.263L154.312 371.794C158.018 372.264 161.676 373.061 165.242 374.175C168.918 375.421 172.35 377.275 175.942 378.742C184.296 382.125 193.276 383.337 202.173 384.52C203.691 384.72 205.431 384.861 206.552 383.82C208 382.428 207.52 380.103 207.109 378.153C206.942 377.353 206.817 376.553 206.719 375.744C212.723 377.327 218.597 379.367 224.29 381.844L225.29 382.283C225.582 383.801 226.982 385.012 228.325 386.648C228.766 387.338 229.282 387.978 229.863 388.555C230.528 388.987 231.283 389.258 232.07 389.349C241.462 391.099 251.052 391.532 260.563 390.637C262.51 390.372 264.479 390.305 266.439 390.437C267.879 390.633 269.3 390.952 270.685 391.391L278.739 393.702C284.677 395.402 290.755 397.12 296.916 396.737C298.165 396.658 299.406 396.479 300.626 396.201C305.499 395.073 310.038 392.351 312.377 387.972C315.688 382.01 314.163 374.69 312.381 368.146Z" fill="url(#paint0_linear)"/>
<path d="M87.031 366.79C85.562 363.448 84.17 359.606 85.639 356.264C86.5976 354.296 88.2446 352.748 90.268 351.913C92.2702 351.097 94.3807 350.576 96.533 350.368C103.288 349.482 110.124 349.389 116.901 350.09C117.395 354.002 116.351 357.97 115.453 361.751C114.639 365.232 114.172 365.751 110.58 365.928C108.256 366.05 87.581 368.02 87.031 366.79Z" fill="#FBBEBE"/>
<path d="M149.023 344.247C204.003 344.247 248.573 331.78 248.573 316.401C248.573 301.022 204.003 288.555 149.023 288.555C94.0431 288.555 49.473 301.022 49.473 316.401C49.473 331.78 94.0431 344.247 149.023 344.247Z" fill="#464353"/>
<path opacity="0.1" d="M149.023 344.247C204.003 344.247 248.573 331.78 248.573 316.401C248.573 301.022 204.003 288.555 149.023 288.555C94.0431 288.555 49.473 301.022 49.473 316.401C49.473 331.78 94.0431 344.247 149.023 344.247Z" fill="black"/>
<path d="M166.872 169.4C163.46 175.994 157.792 181.142 150.902 183.908C146.834 185.39 142.553 186.204 138.225 186.317C133.494 186.673 128.739 186.093 124.232 184.611C118.273 182.453 113.323 178.039 109.613 172.895C105.903 167.751 103.348 161.875 101.127 155.951C99.957 152.867 98.844 149.581 99.394 146.323C102.979 145.509 106.905 144.311 108.757 141.13C110.337 138.401 109.899 135.13 108.987 132.01C108.729 131.126 108.43 130.249 108.131 129.41C107.431 127.391 105.031 123.555 106.739 121.829C107.804 120.736 112.266 120.179 113.805 119.469C118.546 117.283 122.918 114.123 128.125 113.085C132.625 112.185 137.279 113.029 141.776 113.962C142.373 114.049 142.946 114.255 143.461 114.568C144.048 115.063 144.483 115.715 144.714 116.448C145.995 119.567 146.747 123.013 147.777 126.264C148.849 129.664 150.227 132.864 152.81 135.279C154.928 137.057 157.318 138.482 159.89 139.498L166.058 142.324C167.155 142.735 168.15 143.379 168.975 144.211C169.781 145.32 170.263 146.631 170.367 147.998C171.472 155.324 170.25 162.811 166.872 169.405V169.4Z" fill="#FBBEBE"/>
<path opacity="0.1" d="M147.748 126.261C142.836 131.375 136.366 134.714 129.352 135.754C122.339 136.795 115.178 135.478 108.993 132.011C108.735 131.127 108.436 130.25 108.137 129.411C107.437 127.392 105.037 123.556 106.745 121.83C107.81 120.737 112.272 120.18 113.811 119.47C118.552 117.284 122.924 114.124 128.131 113.086C132.631 112.186 137.285 113.03 141.783 113.963C142.38 114.05 142.953 114.256 143.468 114.569C144.055 115.064 144.49 115.716 144.721 116.449C145.966 119.564 146.718 123.01 147.748 126.261Z" fill="black"/>
<path d="M124.658 134.706C142.344 134.706 156.681 120.369 156.681 102.683C156.681 84.9972 142.344 70.66 124.658 70.66C106.972 70.66 92.635 84.9972 92.635 102.683C92.635 120.369 106.972 134.706 124.658 134.706Z" fill="#FBBEBE"/>
<path d="M222.223 206.609L219.592 190.667C218.262 182.667 216.892 174.516 213.173 167.311C210.73 162.591 206.852 158.094 201.624 157.161C200.594 157.068 199.582 156.832 198.617 156.461C197.085 155.723 196.25 154.066 195.074 152.841C192.039 149.694 187.096 149.641 183.031 148.041C179.439 146.649 176.501 143.969 173.231 141.922C169.961 139.875 165.887 138.441 162.267 139.75C161.682 145.981 161.067 152.35 158.417 158.024C156.696 161.719 154.171 164.982 151.027 167.576C147.882 170.169 144.198 172.026 140.243 173.012C136.288 173.998 132.163 174.087 128.169 173.274C124.175 172.46 120.414 170.764 117.16 168.309C110.96 163.638 106.982 156.433 105.131 148.893C104.678 147.055 104.163 144.946 102.472 144.103C100.641 143.184 98.441 144.298 96.903 145.648C94.118 148.148 91.842 151.725 88.18 152.568C86.857 152.874 85.395 152.812 84.295 153.612C83.564 154.287 82.952 155.08 82.485 155.958C81.6837 157.09 80.613 158.005 79.3696 158.62C78.1263 159.235 76.7493 159.531 75.363 159.481C74.089 159.418 72.578 159.126 71.708 160.052C71.061 160.752 71.008 161.834 70.316 162.482C69.376 163.394 67.852 162.948 66.543 162.9C65.3043 162.932 64.092 163.265 63.0116 163.872C61.9311 164.479 61.015 165.34 60.343 166.381C59.041 168.499 58.0999 170.819 57.558 173.245C65.167 190.189 72.128 207.155 79.737 224.099C80.0934 224.738 80.2826 225.456 80.287 226.187C80.1344 226.946 79.8105 227.661 79.34 228.276C75.609 234.27 75.727 241.809 76.14 248.854C76.553 255.899 77.052 263.341 73.905 269.654C73.049 271.387 71.935 272.975 71.12 274.708C69.213 278.634 68.52 291.193 69.637 295.408H227.02C224.02 287.159 225.161 270.608 225.788 261.847C226.227 255.721 225.088 249.602 224.605 243.476C223.539 230.969 224.291 219.1 222.223 206.609Z" fill="#6C63FF"/>
<path d="M45.499 224.85C45.2204 226.864 45.1922 228.906 45.415 230.927L47.415 259.657C47.603 262.365 47.791 265.066 48.042 267.767C48.522 273.009 49.242 278.209 50.13 283.403C50.1502 284.14 50.462 284.839 50.997 285.347C51.5321 285.855 52.2467 286.129 52.984 286.111C61.79 287.977 70.884 287.9 79.876 287.392C93.59 286.626 107.283 284.879 121.019 285.178C124.555 285.255 128.677 285.178 130.819 282.393C132.961 279.608 131.719 275.104 128.919 272.856C126.119 270.608 122.319 270.071 118.727 270.071C113.972 270.022 109.218 270.698 104.477 270.419C100.139 270.03 95.8464 269.239 91.654 268.059L79.819 265.114C80.4413 261.547 81.486 258.068 82.931 254.748C85.256 248.712 87.431 242.475 87.47 236.008C87.509 229.541 85.075 222.739 79.778 219.036C75.42 215.994 69.809 215.43 64.497 215.555C60.633 215.666 53.957 214.74 50.428 216.255C47.636 217.478 46.021 222.114 45.499 224.85Z" fill="#FBBEBE"/>
<path d="M230.275 290.539C232.593 289.655 235.148 289.975 237.633 290.309C245.633 291.402 253.749 292.523 261.163 295.718C264.691 297.075 267.831 299.277 270.31 302.13C272.398 304.768 273.617 307.999 274.772 311.18L277.445 318.504C278.582 321.255 279.365 324.14 279.777 327.088C280.612 335.853 274.619 344.116 267.077 348.669C259.535 353.222 250.662 354.844 242.016 356.542C233.37 358.24 224.689 360.12 216.077 362.111C212.062 363.153 207.988 363.954 203.877 364.511C194.66 365.555 185.025 364.017 176.268 367.066C172.787 368.284 169.368 370.094 165.756 370.937C163.356 371.442 160.93 371.812 158.488 372.044L141.913 373.938C138.542 374.389 135.149 374.649 131.749 374.718C124.509 374.718 117.387 373.005 110.356 371.293C109.609 371.162 108.897 370.875 108.268 370.451C107.154 369.574 106.911 368.021 106.75 366.615C106.04 360.392 105.418 354.161 104.884 347.923C104.717 345.897 104.592 343.704 105.699 341.999C107.091 339.911 109.806 339.256 112.285 338.852C122.794 337.133 133.44 336.394 144.085 336.645C148.13 332.6 154.799 332.579 160.096 330.38C162.045 329.485 163.931 328.459 165.742 327.31C175.219 321.781 185.809 318.435 196.742 317.515C198.883 317.451 201.01 317.149 203.084 316.615C207.184 315.341 210.923 311.874 215.134 312.723C215.656 311.282 216.018 309.354 217.222 308.365C217.822 307.857 218.559 307.516 219.109 306.973C220.272 305.796 220.376 303.945 220.202 302.302C220.028 300.659 219.638 298.974 220.063 297.373C220.24 296.767 220.5 296.188 220.836 295.654C222.927 292.043 226.08 290.191 230.275 290.539Z" fill="#464353"/>
<path opacity="0.05" d="M230.275 290.539C232.593 289.655 235.148 289.975 237.633 290.309C245.633 291.402 253.749 292.523 261.163 295.718C264.691 297.075 267.831 299.277 270.31 302.13C272.398 304.768 273.617 307.999 274.772 311.18L277.445 318.504C278.582 321.255 279.365 324.14 279.777 327.088C280.612 335.853 274.619 344.116 267.077 348.669C259.535 353.222 250.662 354.844 242.016 356.542C233.37 358.24 224.689 360.12 216.077 362.111C212.062 363.153 207.988 363.954 203.877 364.511C194.66 365.555 185.025 364.017 176.268 367.066C172.787 368.284 169.368 370.094 165.756 370.937C163.356 371.442 160.93 371.812 158.488 372.044L141.913 373.938C138.542 374.389 135.149 374.649 131.749 374.718C124.509 374.718 117.387 373.005 110.356 371.293C109.609 371.162 108.897 370.875 108.268 370.451C107.154 369.574 106.911 368.021 106.75 366.615C106.04 360.392 105.418 354.161 104.884 347.923C104.717 345.897 104.592 343.704 105.699 341.999C107.091 339.911 109.806 339.256 112.285 338.852C122.794 337.133 133.44 336.394 144.085 336.645C148.13 332.6 154.799 332.579 160.096 330.38C162.045 329.485 163.931 328.459 165.742 327.31C175.219 321.781 185.809 318.435 196.742 317.515C198.883 317.451 201.01 317.149 203.084 316.615C207.184 315.341 210.923 311.874 215.134 312.723C215.656 311.282 216.018 309.354 217.222 308.365C217.822 307.857 218.559 307.516 219.109 306.973C220.272 305.796 220.376 303.945 220.202 302.302C220.028 300.659 219.638 298.974 220.063 297.373C220.24 296.767 220.5 296.188 220.836 295.654C222.927 292.043 226.08 290.191 230.275 290.539Z" fill="black"/>
<path d="M93.4351 371.091C89.1261 376.082 85.3351 377.864 78.5861 377.704C74.4367 377.607 70.2924 377.391 66.1531 377.057C63.3235 376.75 60.4779 376.616 57.632 376.657C49.042 376.991 40.75 380.924 32.181 380.235C30.9139 380.134 29.6609 379.899 28.443 379.535C26.5004 379.001 24.7442 377.938 23.37 376.465C21.8189 374.512 20.8232 372.177 20.488 369.705C19.453 363.419 20.3273 356.966 22.9982 351.182C25.669 345.397 30.0135 340.547 35.47 337.258C36.9043 336.332 38.5348 335.752 40.232 335.566C41.8961 335.559 43.541 335.921 45.049 336.624L45.1491 336.666C49.6149 338.504 53.6709 341.211 57.081 344.63C57.5984 345.223 58.2158 345.72 58.9051 346.099C59.593 346.357 60.3211 346.493 61.0561 346.499L70.203 347.077C71.7529 347.123 73.2934 347.335 74.798 347.71C76.4565 348.289 78.071 348.987 79.6291 349.799C84.551 351.999 90.009 352.584 95.329 353.433C95.8415 353.461 96.3304 353.657 96.721 353.99C96.9328 354.253 97.0806 354.561 97.1531 354.89C97.9007 357.688 97.9528 360.626 97.3049 363.448C96.6571 366.27 95.3289 368.892 93.436 371.083L93.4351 371.091Z" fill="#3F3D56"/>
<path opacity="0.1" d="M45.15 336.673C41.6011 340.062 38.5224 343.911 35.996 348.118C31.9415 355.061 29.394 362.779 28.5191 370.771C28.1872 373.686 28.1614 376.628 28.442 379.549C26.499 379.013 24.7431 377.948 23.37 376.472C21.8189 374.519 20.8232 372.184 20.488 369.712C19.453 363.425 20.3273 356.973 22.9982 351.189C25.669 345.404 30.0135 340.554 35.47 337.265C36.9043 336.339 38.5348 335.759 40.232 335.573C41.8961 335.566 43.541 335.927 45.049 336.631L45.15 336.673Z" fill="black"/>
<path d="M222.314 353.993C227.431 353.854 233.174 353.593 236.933 357.042C240.518 360.3 240.992 365.674 241.233 370.513L241.505 376.131C241.717 377.839 241.534 379.573 240.969 381.199C239.744 383.984 236.381 385.327 233.311 385.167C230.241 385.007 227.422 383.667 224.616 382.452C217 379.171 209.069 376.672 200.947 374.996C201.214 371.111 201.655 367.245 202.27 363.396C202.695 360.73 202.764 356.267 204.546 354.054C206.433 351.715 208.89 352.982 211.452 353.414C215.047 353.963 218.686 354.156 222.319 353.992L222.314 353.993Z" fill="#FBBEBE"/>
<path d="M87.094 297.542C87.094 298.242 86.001 297.542 85.904 296.797C85.138 291.165 80.669 286.522 75.462 284.266C70.255 282.01 64.324 281.892 58.685 282.428C50.157 283.236 40.585 286.5 37.466 294.471C36.728 296.337 36.394 298.356 35.489 300.145C34.489 302.108 32.851 303.674 31.765 305.582C29.892 308.882 29.816 312.926 30.491 316.658C32.308 326.613 39.116 335.127 47.366 341.023C55.616 346.919 65.257 350.442 74.866 353.616C100.288 361.999 126.371 368.228 152.838 372.235C157.148 372.74 161.406 373.618 165.564 374.86C169.24 376.092 172.679 377.937 176.271 379.385C184.625 382.74 193.612 383.938 202.516 385.114C204.034 385.309 205.774 385.448 206.895 384.414C208.343 383.07 207.863 380.731 207.452 378.803C205.941 371.471 207.208 363.839 211.009 357.389C212.499 354.883 214.434 352.314 214.156 349.411C213.822 346.028 210.456 343.633 207.097 343.09C203.738 342.547 200.33 343.348 196.961 343.79C195.806 344.056 194.596 343.936 193.515 343.449C193.014 343.11 192.56 342.707 192.164 342.249C189.843 340.01 186.872 338.563 183.678 338.117C180.484 337.671 177.23 338.247 174.384 339.764C173.138 340.464 171.251 338.908 169.956 338.323L155.316 331.696C138.497 324.087 121.594 316.443 103.801 311.626C102.381 311.347 101.032 310.786 99.833 309.976C98.949 309.276 98.315 308.333 97.501 307.56C95.726 305.882 93.254 305.214 91.124 304.024C88.994 302.834 86.606 299.935 87.094 297.542Z" fill="#464353"/>
<path d="M312.792 388.522C310.453 392.859 305.914 395.56 301.041 396.674C299.818 396.95 298.575 397.127 297.324 397.203C291.163 397.586 285.079 395.88 279.141 394.196L271.08 391.927C269.694 391.491 268.273 391.174 266.833 390.98C264.873 390.848 262.904 390.915 260.957 391.18C251.429 392.066 241.825 391.635 232.415 389.899C231.628 389.814 230.872 389.544 230.208 389.112C229.627 388.542 229.11 387.909 228.669 387.225C226.476 384.587 224.116 383.048 226.713 379.567C228.213 377.548 230.987 376.539 232.15 374.221C233.313 371.903 232.568 368.61 231.878 366.215C230.938 362.908 227.847 361.481 226.74 358.446C225.912 356.156 227.304 353.496 229.399 352.246C231.586 351.125 234.084 350.765 236.499 351.223C238.915 351.543 241.282 352.223 243.711 352.413C250.854 352.984 258.156 349.301 265.011 351.376C266.522 351.835 267.949 352.566 269.48 352.97C272.466 353.638 275.585 353.368 278.412 352.197C279.412 351.821 280.396 351.369 281.371 350.923C283.251 349.945 285.252 349.221 287.323 348.772C294.013 347.623 300.216 352.253 305.263 356.772C306.996 358.21 308.529 359.872 309.823 361.715C311.12 363.952 312.06 366.379 312.608 368.906C314.456 375.351 315.98 382.604 312.792 388.522Z" fill="#3F3D56"/>
<path opacity="0.1" d="M312.792 388.521C310.453 392.858 305.914 395.559 301.041 396.673C302.936 392.99 303.791 388.86 303.512 384.727C303.094 378.107 300.184 371.869 296.474 366.369C294.191 362.984 291.595 359.821 288.719 356.922C286.505 354.694 283.783 352.922 281.402 350.886C283.281 349.907 285.283 349.184 287.354 348.735C294.044 347.586 300.247 352.216 305.294 356.735C307.027 358.173 308.56 359.835 309.854 361.678C311.151 363.915 312.091 366.342 312.639 368.869C314.456 375.354 315.983 382.604 312.792 388.521Z" fill="black"/>
<path d="M57.157 173.76C56.4791 174.47 55.9533 175.311 55.612 176.231C49.9847 188.913 46.6608 202.496 45.796 216.343C45.811 217.018 45.6551 217.686 45.343 218.285C45.0355 218.684 44.6931 219.054 44.32 219.392C43.9811 219.794 43.7283 220.261 43.577 220.764C43.4258 221.267 43.3794 221.796 43.4407 222.318C43.502 222.84 43.6697 223.344 43.9334 223.798C44.1971 224.253 44.5513 224.649 44.974 224.961C46.123 222.796 48.874 222.093 51.316 221.905C63.016 220.979 74.449 226.423 86.186 226.012C85.358 223.151 84.167 220.401 83.492 217.505C80.506 204.647 87.954 190.648 83.392 178.263C82.48 175.785 80.955 173.348 78.554 172.263C77.5589 171.861 76.5175 171.585 75.454 171.442C72.488 170.906 66.585 168.616 63.717 169.535C62.659 169.876 62.241 170.872 61.364 171.47C60.034 172.326 58.266 172.639 57.157 173.76Z" fill="#6C63FF"/>
<path d="M229.116 199.099H89.814C85.4123 199.099 81.844 202.667 81.844 207.069V289.982C81.844 294.384 85.4123 297.952 89.814 297.952H229.116C233.518 297.952 237.086 294.384 237.086 289.982V207.069C237.086 202.667 233.518 199.099 229.116 199.099Z" fill="#3F3D56"/>
<path d="M159.117 252.703C161.424 252.703 163.294 250.833 163.294 248.526C163.294 246.219 161.424 244.349 159.117 244.349C156.81 244.349 154.94 246.219 154.94 248.526C154.94 250.833 156.81 252.703 159.117 252.703Z" fill="white"/>
<path d="M102.534 50.708C100.195 52.4 98.594 54.8289 96.965 57.1609C93.965 61.4699 90.565 65.7719 85.771 68.1739C83.954 69.0859 81.88 69.774 80.671 71.362C79.956 72.4353 79.4919 73.6558 79.313 74.933C78.3942 79.4241 77.914 83.9939 77.879 88.578C77.7352 90.8699 78.1137 93.1646 78.986 95.289C79.94 97.238 81.659 98.889 82.014 101.011C82.285 102.668 81.673 104.318 81.457 105.982C81.241 107.646 81.617 109.616 83.157 110.409C83.9861 110.721 84.8519 110.925 85.733 111.015C90.362 112.045 91.915 117.475 92.618 121.965C94.191 121.874 94.901 120.071 95.229 118.603L100.053 97.155C100.575 94.83 101.445 92.136 103.763 91.321C105.315 90.785 107.014 91.286 108.636 91.421C115.006 91.943 120.394 87.021 126.625 85.664C128.619 85.2628 130.658 85.1283 132.688 85.264C137.603 85.508 143.318 87.526 144.362 92.114C144.536 92.859 144.64 93.75 145.337 94.114C146.034 94.478 146.764 94.17 147.495 94.114C150.614 93.801 152.452 97.314 153.35 100.177L156.622 110.619C157.109 112.199 157.931 114.058 159.643 114.26C161.223 114.455 162.567 112.96 162.804 111.475C162.882 109.946 162.672 108.415 162.184 106.964C160.646 100.107 162.999 93.09 164.433 86.219C165.867 79.348 166.125 71.454 161.314 66.163C159.567 64.249 157.269 62.821 155.64 60.803C154.122 58.909 153.266 56.584 151.693 54.726C147.342 49.595 136.183 45.6339 129.34 44.9799C121.525 44.1389 108.855 46.12 102.534 50.708Z" fill="#3F3D56"/>
<g opacity="0.1">
<path opacity="0.1" d="M159.673 109.394C157.96 109.185 157.139 107.306 156.652 105.753C155.561 102.268 154.471 98.7871 153.38 95.3111C152.48 92.4361 150.644 88.9271 147.525 89.2481C146.794 89.3251 146.007 89.6101 145.367 89.2481C144.727 88.8861 144.567 87.9881 144.392 87.2481C143.348 82.6531 137.632 80.6421 132.718 80.3981C130.688 80.2659 128.65 80.4004 126.655 80.7981C120.424 82.1901 115.036 87.0631 108.666 86.5551C107.023 86.4231 105.324 85.9211 103.793 86.4551C101.447 87.2631 100.605 89.9361 100.083 92.2891L95.2621 113.724C94.9351 115.2 94.2251 117.003 92.6511 117.086C91.9511 112.603 90.3951 107.173 85.7661 106.142C84.8861 106.045 84.0211 105.842 83.1901 105.536C82.5837 105.205 82.1093 104.675 81.8461 104.036C81.7211 104.683 81.5751 105.331 81.4911 105.978C81.2821 107.635 81.6511 109.612 83.1911 110.406C84.0201 110.718 84.8859 110.922 85.7671 111.012C90.3961 112.042 91.9491 117.472 92.6521 121.962C94.2251 121.872 94.9351 120.068 95.2631 118.6L100.087 97.1521C100.609 94.8271 101.479 92.1331 103.797 91.3181C105.349 90.7821 107.048 91.2831 108.67 91.4181C115.04 91.9401 120.428 87.0181 126.659 85.6611C128.653 85.2599 130.692 85.1254 132.722 85.2611C137.637 85.5051 143.352 87.5231 144.396 92.1111C144.57 92.8561 144.674 93.7471 145.371 94.1111C146.068 94.4751 146.798 94.1671 147.529 94.1111C150.648 93.7981 152.486 97.3111 153.384 100.174C154.47 103.659 155.561 107.14 156.656 110.616C157.143 112.196 157.965 114.055 159.677 114.257C161.257 114.452 162.601 112.957 162.838 111.472C162.945 110.223 162.803 108.965 162.42 107.772C162.172 108.28 161.779 108.704 161.291 108.99C160.803 109.276 160.242 109.412 159.677 109.38L159.673 109.394Z" fill="black"/>
<path opacity="0.1" d="M82.025 96.139C81.67 94.016 79.937 92.366 78.997 90.417C78.3929 89.1022 78.0434 87.6849 77.967 86.24C77.967 87.02 77.897 87.799 77.89 88.586C77.7461 90.8779 78.1247 93.1726 78.997 95.297C79.77 96.877 81.044 98.27 81.684 99.878C82.0216 98.6626 82.1371 97.3964 82.025 96.14V96.139Z" fill="black"/>
<path opacity="0.1" d="M164.463 81.325C163.196 87.395 161.219 93.577 161.832 99.662C162.232 95.172 163.538 90.654 164.463 86.198C165.236 82.8147 165.508 79.3364 165.271 75.874C165.12 77.7066 164.85 79.5274 164.463 81.325Z" fill="black"/>
</g>
<g opacity="0.8">
<path opacity="0.8" d="M229.755 116.835H664.891" stroke="#3F3D56" stroke-width="3" stroke-miterlimit="10"/>
<path opacity="0.8" d="M268.412 116.828C268.412 116.828 289.22 119.717 278.444 97.391C267.668 75.065 307.682 79.291 307.682 79.291" stroke="#3F3D56" stroke-width="3" stroke-miterlimit="10"/>
<path opacity="0.8" d="M406.995 116.828C406.995 116.828 427.803 113.946 417.026 136.271C406.249 158.596 446.264 154.371 446.264 154.371" stroke="#3F3D56" stroke-width="3" stroke-miterlimit="10"/>
<path opacity="0.8" d="M606.533 116.828C606.533 116.828 585.718 113.946 596.502 136.271C607.286 158.596 567.264 154.371 567.264 154.371" stroke="#3F3D56" stroke-width="3" stroke-miterlimit="10"/>
<path opacity="0.8" d="M567.263 154.364H452.447" stroke="#3F3D56" stroke-width="3" stroke-miterlimit="10"/>
<path opacity="0.8" d="M229.755 129.54C236.772 129.54 242.46 123.852 242.46 116.835C242.46 109.818 236.772 104.13 229.755 104.13C222.738 104.13 217.05 109.818 217.05 116.835C217.05 123.852 222.738 129.54 229.755 129.54Z" fill="#6C63FF"/>
<path opacity="0.8" d="M307.898 91.816C314.915 91.816 320.603 86.1278 320.603 79.111C320.603 72.0942 314.915 66.406 307.898 66.406C300.881 66.406 295.193 72.0942 295.193 79.111C295.193 86.1278 300.881 91.816 307.898 91.816Z" fill="#3ACC6C"/>
<path opacity="0.8" d="M307.898 129.54C314.915 129.54 320.603 123.852 320.603 116.835C320.603 109.818 314.915 104.13 307.898 104.13C300.881 104.13 295.193 109.818 295.193 116.835C295.193 123.852 300.881 129.54 307.898 129.54Z" fill="#6C63FF"/>
<path opacity="0.8" d="M358.327 129.54C365.344 129.54 371.032 123.852 371.032 116.835C371.032 109.818 365.344 104.13 358.327 104.13C351.31 104.13 345.622 109.818 345.622 116.835C345.622 123.852 351.31 129.54 358.327 129.54Z" fill="#6C63FF"/>
<path opacity="0.8" d="M446.474 166.882C453.491 166.882 459.179 161.194 459.179 154.177C459.179 147.16 453.491 141.472 446.474 141.472C439.457 141.472 433.769 147.16 433.769 154.177C433.769 161.194 439.457 166.882 446.474 166.882Z" fill="#FF6584"/>
<path opacity="0.8" d="M513.082 166.882C520.099 166.882 525.787 161.194 525.787 154.177C525.787 147.16 520.099 141.472 513.082 141.472C506.065 141.472 500.377 147.16 500.377 154.177C500.377 161.194 506.065 166.882 513.082 166.882Z" fill="#FF6584"/>
<path opacity="0.8" d="M509.608 129.54C516.625 129.54 522.313 123.852 522.313 116.835C522.313 109.818 516.625 104.13 509.608 104.13C502.591 104.13 496.903 109.818 496.903 116.835C496.903 123.852 502.591 129.54 509.608 129.54Z" fill="#6C63FF"/>
<path opacity="0.8" d="M661.675 129.54C668.692 129.54 674.38 123.852 674.38 116.835C674.38 109.818 668.692 104.13 661.675 104.13C654.658 104.13 648.97 109.818 648.97 116.835C648.97 123.852 654.658 129.54 661.675 129.54Z" fill="#6C63FF"/>
<path opacity="0.8" d="M599.467 129.54C606.484 129.54 612.172 123.852 612.172 116.835C612.172 109.818 606.484 104.13 599.467 104.13C592.45 104.13 586.762 109.818 586.762 116.835C586.762 123.852 592.45 129.54 599.467 129.54Z" fill="#6C63FF"/>
<path opacity="0.8" d="M251.036 0H208.411V29.378H251.036V0Z" fill="#6C63FF"/>
<path opacity="0.8" d="M329.367 0H286.742V29.378H329.367V0Z" fill="#3ACC6C"/>
<path opacity="0.8" d="M467.608 0H424.983V29.378H467.608V0Z" fill="#FF6584"/>
</g>
<g opacity="0.1">
<path opacity="0.1" d="M60.107 123.01C60.107 123.01 8.05896 101.123 1.23696 140.615C1.23696 140.615 -2.32003 146.769 2.62897 151.851C2.62897 151.851 3.69396 149.122 8.71996 151.942C10.5153 152.935 12.4224 153.711 14.401 154.253C17.0728 154.99 19.9118 154.838 22.49 153.821C22.49 153.821 39.608 152.895 54.005 130.5C54.005 130.5 60.18 126.685 60.486 125.251L50.169 125.951C50.169 125.951 50.963 133.504 46.688 138.036C46.688 138.036 50.475 126.313 48.658 125.986C48.289 125.916 43.207 126.586 43.207 126.586C43.207 126.586 44.523 139.722 37.638 146.517C37.638 146.517 44.029 133.158 41.251 126.823L33.635 128.292C33.635 128.292 35.723 142.111 28.191 150.144C28.191 150.144 34.391 135.944 31.991 128.73L24.702 131.18C24.702 131.18 26.456 144.692 20.156 151.368C20.156 151.368 25.656 134.236 23.066 131.876C23.066 131.876 16.508 134.535 15.109 136.053C15.109 136.053 16.146 145.799 12.143 149.315C12.143 149.315 14.6 137.48 13.382 136.993C13.382 136.993 5.76597 142.729 3.44097 147.679C3.44097 147.679 6.34097 140.119 12.428 135.844C12.428 135.844 7.31097 134.981 3.37797 137.118C3.37797 137.118 6.00897 132.099 14.273 134.48C14.273 134.48 20.392 130.24 21.617 130.303C21.617 130.303 13.799 126.822 8.15296 127.254C8.15296 127.254 14.21 123.773 23.524 129.586L30.799 126.962C30.799 126.962 20.705 121.79 15.651 121.81C15.651 121.81 22.376 119.21 32.686 126.446L40.135 124.928C40.135 124.928 31.781 119.811 26.149 118.621C26.149 118.621 32.902 117.549 42.286 124.573L47.375 124.148C47.375 124.148 41.214 120.514 39.348 119.63C37.482 118.746 37.566 118.175 37.566 118.175C41.9934 118.934 46.1238 120.905 49.498 123.87C49.498 123.87 60.069 123.657 60.107 123.01Z" fill="#6C63FF"/>
</g>
<g opacity="0.1">
<path opacity="0.1" d="M58.1879 83.7751C58.1879 83.7751 39.7539 41.1221 13.1959 60.6841C13.1959 60.6841 7.58494 62.3131 7.62694 68.1331C7.62694 68.1331 9.81294 67.1171 11.1979 71.6631C11.7059 73.275 12.407 74.8195 13.2859 76.2631C14.4479 78.2257 16.2206 79.7538 18.3329 80.614C18.3329 80.614 29.0329 89.8141 50.3559 84.7141C50.3559 84.7141 56.2039 85.9601 57.1989 85.2921L50.683 79.8131C50.683 79.8131 46.8469 84.756 41.7099 84.992C41.7099 84.992 50.6419 80.1921 49.7509 78.9561C49.5699 78.7051 46.166 76.213 46.166 76.213C46.166 76.213 39.4659 84.762 31.5469 84.894C31.5469 84.894 42.9569 80.594 44.9129 75.252L39.5529 71.7711C39.5529 71.7711 32.7929 81.1711 23.7429 81.6631C23.7429 81.6631 35.5149 76.7551 38.2019 71.1021L32.4729 68.4081C32.4729 68.4081 25.8179 77.458 18.2919 77.799C18.2919 77.799 31.3239 70.7541 31.1219 67.8791C31.1219 67.8791 25.7129 65.721 23.9929 65.846C23.9929 65.846 19.0709 72.216 14.6789 72.035C14.6789 72.035 22.8869 66.4031 22.4409 65.4221C22.4409 65.4221 14.6409 64.489 10.4459 66.122C10.4459 66.122 16.4749 63.2821 22.5239 64.2151C22.5239 64.2151 19.9759 60.783 16.4329 59.829C16.4329 59.829 20.8609 58.346 24.4109 64.458C24.4109 64.458 30.4539 65.4331 31.1639 66.1581C31.1639 66.1581 28.5119 59.6211 24.8989 56.6761C24.8989 56.6761 30.4679 58.0681 32.6989 66.8191L38.5189 69.402C38.5189 69.402 35.4699 60.5751 32.4489 57.7141C32.4489 57.7141 37.9279 59.9971 39.9329 70.1751L45.224 73.51C45.224 73.51 43.1769 65.71 40.5109 61.794C40.5109 61.794 45.1329 65.01 46.7 74.527L49.972 77.1721C49.972 77.1721 48.3779 71.5051 47.7719 69.9181C47.1659 68.3311 47.5419 68.0381 47.5419 68.0381C49.741 71.023 51.0645 74.5617 51.364 78.2571C51.364 78.2571 57.7919 84.1301 58.1879 83.7751Z" fill="#6C63FF"/>
</g>
<defs>
<linearGradient id="paint0_linear" x1="167.051" y1="396.791" x2="167.051" y2="40.9656" gradientUnits="userSpaceOnUse">
<stop stop-color="#808080" stop-opacity="0.251"/>
<stop offset="0.54" stop-color="#808080" stop-opacity="0.122"/>
<stop offset="1" stop-color="#808080" stop-opacity="0.102"/>
</linearGradient>
</defs>
</svg>
