<svg width="252" height="72" viewBox="0 0 252 72" fill="none" xmlns="http://www.w3.org/2000/svg">
<path d="M41.1604 3.49186C27.6046 8.09573 16.0949 41.0901 11.2353 40.8343C8.6392 40.6977 7.30528 38.5386 6.19776 36.2305C5.27747 34.3126 2.98767 33.2884 1.31668 34.6049C-0.774289 36.2523 -1.3009 38.8776 6.88717 42.6247C21.9776 49.5305 23.5122 15.7688 41.1604 7.83995C58.8086 -0.088928 72.1086 4.0034 63.924 14.7458C61.7747 17.5667 59.4563 19.5279 57.025 20.8806C47.7467 26.043 31.4705 26.3261 32.6382 36.8794C32.7943 38.2905 33.44 39.6408 34.7661 40.8343C42.4393 47.7401 71.5971 40.8343 76.201 40.067C82.851 38.5324 79.0144 33.6728 77.7356 32.9055C71.6466 29.2521 64.5202 40.1192 57.4325 40.5518C50.3833 40.9821 45.3884 40.705 41.9728 39.9484C29.8256 37.2579 48.364 27.58 60.3443 24.2237C79.2029 18.9405 78.9052 5.09976 73.6433 2.46878C66.9932 -0.856238 54.7162 -1.11201 41.1604 3.49186Z" fill="url(#paint0_linear)"/>
<path d="M107.246 30.3555C107.246 31.918 106.966 33.3763 106.406 34.7305C105.846 36.0716 105.085 37.237 104.121 38.2266C103.158 39.2031 102.025 39.9779 100.723 40.5508C99.4336 41.1107 98.0469 41.3906 96.5625 41.3906C95.0911 41.3906 93.7044 41.1107 92.4023 40.5508C91.1133 39.9779 89.9805 39.2031 89.0039 38.2266C88.0404 37.237 87.2786 36.0716 86.7188 34.7305C86.1589 33.3763 85.8789 31.918 85.8789 30.3555C85.8789 28.7669 86.1589 27.2956 86.7188 25.9414C87.2786 24.5872 88.0404 23.4219 89.0039 22.4453C89.9805 21.4557 91.1133 20.681 92.4023 20.1211C93.7044 19.5612 95.0911 19.2812 96.5625 19.2812C98.0469 19.2812 99.4336 19.5482 100.723 20.082C102.025 20.6029 103.158 21.3516 104.121 22.3281C105.085 23.2917 105.846 24.457 106.406 25.8242C106.966 27.1784 107.246 28.6888 107.246 30.3555ZM101.875 30.3555C101.875 29.4961 101.732 28.7214 101.445 28.0312C101.172 27.3281 100.794 26.7292 100.312 26.2344C99.8307 25.7266 99.2643 25.3424 98.6133 25.082C97.9753 24.8086 97.2917 24.6719 96.5625 24.6719C95.8333 24.6719 95.1432 24.8086 94.4922 25.082C93.8542 25.3424 93.2943 25.7266 92.8125 26.2344C92.3438 26.7292 91.9727 27.3281 91.6992 28.0312C91.4258 28.7214 91.2891 29.4961 91.2891 30.3555C91.2891 31.1628 91.4258 31.9115 91.6992 32.6016C91.9727 33.2917 92.3438 33.8906 92.8125 34.3984C93.2943 34.9062 93.8542 35.3099 94.4922 35.6094C95.1432 35.8958 95.8333 36.0391 96.5625 36.0391C97.2917 36.0391 97.9753 35.9023 98.6133 35.6289C99.2643 35.3555 99.8307 34.9714 100.312 34.4766C100.794 33.9818 101.172 33.3828 101.445 32.6797C101.732 31.9766 101.875 31.2018 101.875 30.3555ZM125.566 38.5586C125.137 38.9492 124.674 39.3203 124.18 39.6719C123.698 40.0104 123.19 40.3099 122.656 40.5703C122.122 40.8177 121.569 41.013 120.996 41.1562C120.436 41.3125 119.863 41.3906 119.277 41.3906C117.988 41.3906 116.777 41.1628 115.645 40.707C114.512 40.2513 113.516 39.6068 112.656 38.7734C111.81 37.9271 111.139 36.9049 110.645 35.707C110.163 34.4961 109.922 33.1419 109.922 31.6445V20.082H115.234V31.6445C115.234 32.3477 115.339 32.9792 115.547 33.5391C115.768 34.0859 116.061 34.5482 116.426 34.9258C116.79 35.3034 117.214 35.5898 117.695 35.7852C118.19 35.9805 118.717 36.0781 119.277 36.0781C119.824 36.0781 120.339 35.9544 120.82 35.707C121.315 35.4466 121.745 35.1081 122.109 34.6914C122.474 34.2747 122.76 33.806 122.969 33.2852C123.177 32.7513 123.281 32.2044 123.281 31.6445V20.082H128.613V41H127.324L125.566 38.5586ZM143.184 41C141.895 41 140.684 40.7591 139.551 40.2773C138.418 39.7826 137.422 39.112 136.562 38.2656C135.716 37.4062 135.046 36.4102 134.551 35.2773C134.069 34.1445 133.828 32.9336 133.828 31.6445V25.4336H131.23V20.1211H133.828V11.7617H139.141V20.1211H147.227V25.4336H139.141V31.6445C139.141 32.2044 139.245 32.7318 139.453 33.2266C139.661 33.7083 139.948 34.1315 140.312 34.4961C140.677 34.8607 141.107 35.1536 141.602 35.375C142.096 35.5833 142.624 35.6875 143.184 35.6875H147.227V41H143.184ZM158.555 35.8828C158.763 35.9479 158.971 35.9935 159.18 36.0195C159.388 36.0326 159.596 36.0391 159.805 36.0391C160.326 36.0391 160.827 35.9674 161.309 35.8242C161.79 35.681 162.24 35.4792 162.656 35.2188C163.086 34.9453 163.464 34.6198 163.789 34.2422C164.128 33.8516 164.401 33.4219 164.609 32.9531L168.516 36.8789C168.021 37.582 167.448 38.2135 166.797 38.7734C166.159 39.3333 165.462 39.8086 164.707 40.1992C163.965 40.5898 163.177 40.8828 162.344 41.0781C161.523 41.2865 160.677 41.3906 159.805 41.3906C158.333 41.3906 156.947 41.1172 155.645 40.5703C154.355 40.0234 153.223 39.2617 152.246 38.2852C151.283 37.3086 150.521 36.1497 149.961 34.8086C149.401 33.4544 149.121 31.9701 149.121 30.3555C149.121 28.7018 149.401 27.1914 149.961 25.8242C150.521 24.457 151.283 23.2917 152.246 22.3281C153.223 21.3646 154.355 20.6159 155.645 20.082C156.947 19.5482 158.333 19.2812 159.805 19.2812C160.677 19.2812 161.53 19.3854 162.363 19.5938C163.197 19.8021 163.984 20.1016 164.727 20.4922C165.482 20.8828 166.185 21.3646 166.836 21.9375C167.487 22.4974 168.06 23.1289 168.555 23.832L158.555 35.8828ZM161.289 24.8867C161.042 24.7956 160.794 24.737 160.547 24.7109C160.312 24.6849 160.065 24.6719 159.805 24.6719C159.076 24.6719 158.385 24.8086 157.734 25.082C157.096 25.3424 156.536 25.7201 156.055 26.2148C155.586 26.7096 155.215 27.3086 154.941 28.0117C154.668 28.7018 154.531 29.4831 154.531 30.3555C154.531 30.5508 154.538 30.7721 154.551 31.0195C154.577 31.2669 154.609 31.5208 154.648 31.7812C154.701 32.0286 154.759 32.2695 154.824 32.5039C154.889 32.7383 154.974 32.9466 155.078 33.1289L161.289 24.8867Z" fill="#A3A3A3"/>
<path d="M106.406 34.7305L106.868 34.9231L106.868 34.9215L106.406 34.7305ZM104.121 38.2266L104.477 38.5777L104.479 38.5754L104.121 38.2266ZM100.723 40.5508L100.922 41.0094L100.924 41.0084L100.723 40.5508ZM92.4023 40.5508L92.1993 41.0077L92.2048 41.0101L92.4023 40.5508ZM89.0039 38.2266L88.6456 38.5754L88.6504 38.5801L89.0039 38.2266ZM86.7188 34.7305L86.2567 34.9215L86.2573 34.9231L86.7188 34.7305ZM89.0039 22.4453L88.648 22.0941L88.648 22.0941L89.0039 22.4453ZM92.4023 20.1211L92.2048 19.6618L92.2032 19.6625L92.4023 20.1211ZM100.723 20.082L100.531 20.544L100.537 20.5463L100.723 20.082ZM104.121 22.3281L103.765 22.6793L103.768 22.6817L104.121 22.3281ZM106.406 25.8242L105.944 26.0137L105.944 26.0153L106.406 25.8242ZM101.445 28.0312L100.979 28.2125L100.984 28.2229L101.445 28.0312ZM100.312 26.2344L99.9497 26.5785L99.9543 26.5832L100.312 26.2344ZM98.6133 25.082L98.4163 25.5417L98.4276 25.5463L98.6133 25.082ZM94.4922 25.082L94.6811 25.545L94.6858 25.543L94.4922 25.082ZM92.8125 26.2344L92.4498 25.8902L92.4495 25.8905L92.8125 26.2344ZM91.6992 28.0312L92.1641 28.2154L92.1652 28.2125L91.6992 28.0312ZM92.8125 34.3984L92.4451 34.7376L92.4498 34.7426L92.8125 34.3984ZM94.4922 35.6094L94.2797 36.0621L94.2908 36.067L94.4922 35.6094ZM98.6133 35.6289L98.4197 35.1679L98.4163 35.1693L98.6133 35.6289ZM101.445 32.6797L100.982 32.491L100.979 32.4985L101.445 32.6797ZM106.746 30.3555C106.746 31.8568 106.477 33.2498 105.944 34.5394L106.868 34.9215C107.455 33.5028 107.746 31.9791 107.746 30.3555H106.746ZM105.945 34.5378C105.408 35.824 104.68 36.9356 103.763 37.8778L104.479 38.5754C105.489 37.5384 106.285 36.3193 106.868 34.9231L105.945 34.5378ZM103.765 37.8754C102.848 38.8054 101.768 39.5447 100.521 40.0931L100.924 41.0084C102.282 40.4111 103.468 39.6009 104.477 38.5777L103.765 37.8754ZM100.523 40.0922C99.3008 40.6232 97.9823 40.8906 96.5625 40.8906V41.8906C98.1115 41.8906 99.5664 41.5981 100.922 41.0094L100.523 40.0922ZM96.5625 40.8906C95.1564 40.8906 93.8372 40.6235 92.5999 40.0914L92.2048 41.0101C93.5717 41.5979 95.0259 41.8906 96.5625 41.8906V40.8906ZM92.6054 40.0939C91.3712 39.5453 90.2897 38.8052 89.3575 37.873L88.6504 38.5801C89.6712 39.601 90.8554 40.4104 92.1993 41.0077L92.6054 40.0939ZM89.3621 37.8778C88.4448 36.9356 87.7171 35.824 87.1802 34.5378L86.2573 34.9231C86.8402 36.3193 87.6359 37.5384 88.6457 38.5754L89.3621 37.8778ZM87.1808 34.5394C86.6476 33.2498 86.3789 31.8568 86.3789 30.3555H85.3789C85.3789 31.9791 85.6701 33.5028 86.2567 34.9215L87.1808 34.5394ZM86.3789 30.3555C86.3789 28.8269 86.648 27.4211 87.1808 26.1325L86.2567 25.7504C85.6697 27.17 85.3789 28.7069 85.3789 30.3555H86.3789ZM87.1808 26.1325C87.7177 24.8339 88.4447 23.724 89.3598 22.7965L88.648 22.0941C87.636 23.1198 86.8396 24.3406 86.2567 25.7504L87.1808 26.1325ZM89.3598 22.7965C90.291 21.8529 91.3704 21.1144 92.6015 20.5797L92.2032 19.6625C90.8561 20.2476 89.67 21.0585 88.648 22.0941L89.3598 22.7965ZM92.5999 20.5804C93.8372 20.0484 95.1564 19.7812 96.5625 19.7812V18.7812C95.0259 18.7812 93.5717 19.074 92.2048 19.6618L92.5999 20.5804ZM96.5625 19.7812C97.9855 19.7812 99.3067 20.0368 100.531 20.544L100.914 19.6201C99.5604 19.0595 98.1083 18.7812 96.5625 18.7812V19.7812ZM100.537 20.5463C101.777 21.0421 102.851 21.7528 103.765 22.6793L104.477 21.977C103.464 20.9503 102.273 20.1636 100.908 19.6178L100.537 20.5463ZM103.768 22.6817C104.68 23.5945 105.407 24.7027 105.944 26.0137L106.869 25.6347C106.286 24.2114 105.489 22.9888 104.475 21.9746L103.768 22.6817ZM105.944 26.0153C106.476 27.3011 106.746 28.7454 106.746 30.3555H107.746C107.746 28.6322 107.456 27.0557 106.868 25.6332L105.944 26.0153ZM102.375 30.3555C102.375 29.4401 102.222 28.5989 101.907 27.8396L100.984 28.2229C101.241 28.8439 101.375 29.5521 101.375 30.3555H102.375ZM101.911 27.85C101.616 27.0902 101.203 26.4327 100.671 25.8856L99.9543 26.5832C100.385 27.0256 100.728 27.5661 100.979 28.2125L101.911 27.85ZM100.675 25.8902C100.144 25.33 99.5169 24.905 98.799 24.6178L98.4276 25.5463C99.0118 25.7799 99.5177 26.1231 99.9498 26.5785L100.675 25.8902ZM98.8102 24.6225C98.1069 24.321 97.3559 24.1719 96.5625 24.1719V25.1719C97.2274 25.1719 97.8437 25.2962 98.4163 25.5416L98.8102 24.6225ZM96.5625 24.1719C95.7691 24.1719 95.0129 24.321 94.2986 24.621L94.6858 25.543C95.2735 25.2962 95.8976 25.1719 96.5625 25.1719V24.1719ZM94.3032 24.6191C93.5985 24.9068 92.9796 25.3318 92.4498 25.8902L93.1752 26.5785C93.609 26.1213 94.1099 25.7781 94.6811 25.545L94.3032 24.6191ZM92.4495 25.8905C91.9317 26.4371 91.5276 27.093 91.2332 27.85L92.1652 28.2125C92.4177 27.5633 92.7558 27.0212 93.1755 26.5782L92.4495 25.8905ZM91.2344 27.8471C90.9344 28.6043 90.7891 29.4428 90.7891 30.3555H91.7891C91.7891 29.5493 91.9172 28.8384 92.1641 28.2154L91.2344 27.8471ZM90.7891 30.3555C90.7891 31.2203 90.9358 32.0321 91.2344 32.7857L92.1641 32.4174C91.9158 31.7908 91.7891 31.1052 91.7891 30.3555H90.7891ZM91.2344 32.7857C91.5288 33.5288 91.9316 34.1813 92.4451 34.7376L93.1799 34.0593C92.7559 33.6 92.4165 33.0545 92.1641 32.4174L91.2344 32.7857ZM92.4498 34.7426C92.9747 35.2959 93.5857 35.7362 94.2797 36.062L94.7046 35.1568C94.1226 34.8836 93.6138 34.5166 93.1752 34.0543L92.4498 34.7426ZM94.2908 36.067C95.0069 36.3821 95.7658 36.5391 96.5625 36.5391V35.5391C95.9009 35.5391 95.2795 35.4095 94.6936 35.1517L94.2908 36.067ZM96.5625 36.5391C97.3559 36.5391 98.1069 36.3899 98.8102 36.0885L98.4163 35.1693C97.8437 35.4148 97.2274 35.5391 96.5625 35.5391V36.5391ZM98.8069 36.0899C99.5184 35.7911 100.141 35.3693 100.671 34.8254L99.9543 34.1278C99.5204 34.5734 99.0103 34.9199 98.4197 35.1679L98.8069 36.0899ZM100.671 34.8254C101.203 34.2782 101.616 33.6207 101.911 32.8609L100.979 32.4985C100.728 33.1449 100.385 33.6853 99.9543 34.1278L100.671 34.8254ZM101.908 32.8683C102.222 32.0988 102.375 31.2591 102.375 30.3555H101.375C101.375 31.1446 101.242 31.8543 100.982 32.491L101.908 32.8683ZM125.566 38.5586L125.972 38.2664L125.645 37.8117L125.23 38.1886L125.566 38.5586ZM124.18 39.6719L124.467 40.081L124.469 40.0795L124.18 39.6719ZM122.656 40.5703L122.867 41.0241L122.875 41.0197L122.656 40.5703ZM120.996 41.1562L120.875 40.671L120.862 40.6747L120.996 41.1562ZM112.656 38.7734L112.303 39.127L112.308 39.1324L112.656 38.7734ZM110.645 35.707L110.18 35.8919L110.182 35.8979L110.645 35.707ZM109.922 20.082V19.582H109.422V20.082H109.922ZM115.234 20.082H115.734V19.582H115.234V20.082ZM115.547 33.5391L115.078 33.7134L115.081 33.7201L115.083 33.7267L115.547 33.5391ZM117.695 35.7852L117.507 36.2485L117.512 36.2502L117.695 35.7852ZM120.82 35.707L121.049 36.1518L121.053 36.1495L120.82 35.707ZM122.969 33.2852L123.433 33.4709L123.435 33.4669L122.969 33.2852ZM123.281 20.082V19.582H122.781V20.082H123.281ZM128.613 20.082H129.113V19.582H128.613V20.082ZM128.613 41V41.5H129.113V41H128.613ZM127.324 41L126.918 41.2922L127.068 41.5H127.324V41ZM125.23 38.1886C124.816 38.5652 124.369 38.9238 123.89 39.2643L124.469 40.0795C124.98 39.7168 125.458 39.3332 125.903 38.9286L125.23 38.1886ZM123.892 39.2628C123.432 39.586 122.947 39.872 122.437 40.1209L122.875 41.0197C123.433 40.7478 123.964 40.4349 124.467 40.081L123.892 39.2628ZM122.446 40.1167C121.941 40.3508 121.417 40.5356 120.875 40.6712L121.117 41.6413C121.721 41.4905 122.304 41.2847 122.866 41.024L122.446 40.1167ZM120.862 40.6747C120.346 40.8186 119.818 40.8906 119.277 40.8906V41.8906C119.908 41.8906 120.526 41.8064 121.13 41.6378L120.862 40.6747ZM119.277 40.8906C118.049 40.8906 116.901 40.6737 115.831 40.2432L115.458 41.1709C116.653 41.6518 117.928 41.8906 119.277 41.8906V40.8906ZM115.831 40.2432C114.757 39.8111 113.816 39.2018 113.004 38.4145L112.308 39.1324C113.215 40.0117 114.266 40.6915 115.458 41.1709L115.831 40.2432ZM113.01 38.4199C112.214 37.6238 111.578 36.6583 111.107 35.5162L110.182 35.8979C110.7 37.1516 111.406 38.2304 112.303 39.127L113.01 38.4199ZM111.109 35.5222C110.654 34.3782 110.422 33.088 110.422 31.6445H109.422C109.422 33.1959 109.672 34.614 110.18 35.8919L111.109 35.5222ZM110.422 31.6445V20.082H109.422V31.6445H110.422ZM109.922 20.582H115.234V19.582H109.922V20.582ZM114.734 20.082V31.6445H115.734V20.082H114.734ZM114.734 31.6445C114.734 32.3969 114.846 33.0888 115.078 33.7134L116.015 33.3647C115.831 32.8695 115.734 32.2984 115.734 31.6445H114.734ZM115.083 33.7267C115.326 34.3256 115.652 34.844 116.066 35.2731L116.785 34.5785C116.471 34.2523 116.211 33.8463 116.01 33.3515L115.083 33.7267ZM116.066 35.2731C116.479 35.7005 116.96 36.0267 117.507 36.2485L117.883 35.3218C117.467 35.153 117.102 34.9063 116.785 34.5785L116.066 35.2731ZM117.512 36.2502C118.068 36.4698 118.658 36.5781 119.277 36.5781V35.5781C118.777 35.5781 118.312 35.4911 117.879 35.3201L117.512 36.2502ZM119.277 36.5781C119.903 36.5781 120.496 36.4359 121.049 36.1518L120.592 35.2622C120.182 35.473 119.746 35.5781 119.277 35.5781V36.5781ZM121.053 36.1495C121.602 35.8608 122.08 35.484 122.486 35.0207L121.733 34.3622C121.409 34.7321 121.028 35.0325 120.587 35.2646L121.053 36.1495ZM122.486 35.0207C122.888 34.5609 123.204 34.0435 123.433 33.4709L122.505 33.0995C122.317 33.5685 122.06 33.9886 121.733 34.3622L122.486 35.0207ZM123.435 33.4669C123.665 32.8765 123.781 32.2681 123.781 31.6445H122.781C122.781 32.1408 122.689 32.6261 122.503 33.1034L123.435 33.4669ZM123.781 31.6445V20.082H122.781V31.6445H123.781ZM123.281 20.582H128.613V19.582H123.281V20.582ZM128.113 20.082V41H129.113V20.082H128.113ZM128.613 40.5H127.324V41.5H128.613V40.5ZM127.73 40.7078L125.972 38.2664L125.161 38.8507L126.918 41.2922L127.73 40.7078ZM139.551 40.2773L139.351 40.7356L139.355 40.7375L139.551 40.2773ZM136.562 38.2656L136.206 38.6165L136.212 38.6219L136.562 38.2656ZM134.551 35.2773L134.091 35.473L134.093 35.4775L134.551 35.2773ZM133.828 25.4336H134.328V24.9336H133.828V25.4336ZM131.23 25.4336H130.73V25.9336H131.23V25.4336ZM131.23 20.1211V19.6211H130.73V20.1211H131.23ZM133.828 20.1211V20.6211H134.328V20.1211H133.828ZM133.828 11.7617V11.2617H133.328V11.7617H133.828ZM139.141 11.7617H139.641V11.2617H139.141V11.7617ZM139.141 20.1211H138.641V20.6211H139.141V20.1211ZM147.227 20.1211H147.727V19.6211H147.227V20.1211ZM147.227 25.4336V25.9336H147.727V25.4336H147.227ZM139.141 25.4336V24.9336H138.641V25.4336H139.141ZM139.453 33.2266L138.992 33.4206L138.994 33.425L139.453 33.2266ZM140.312 34.4961L140.666 34.1425L140.312 34.4961ZM141.602 35.375L141.397 35.8315L141.408 35.8358L141.602 35.375ZM147.227 35.6875H147.727V35.1875H147.227V35.6875ZM147.227 41V41.5H147.727V41H147.227ZM143.184 40.5C141.959 40.5 140.814 40.2714 139.746 39.8172L139.355 40.7375C140.553 41.2468 141.831 41.5 143.184 41.5V40.5ZM139.751 39.8191C138.673 39.3482 137.728 38.7117 136.913 37.9094L136.212 38.6219C137.116 39.5122 138.163 40.2169 139.351 40.7355L139.751 39.8191ZM136.919 37.9148C136.116 37.1001 135.48 36.1554 135.009 35.0772L134.093 35.4775C134.611 36.6649 135.316 37.7124 136.206 38.6165L136.919 37.9148ZM135.011 35.0817C134.557 34.0136 134.328 32.8696 134.328 31.6445H133.328C133.328 32.9976 133.581 34.2754 134.091 35.473L135.011 35.0817ZM134.328 31.6445V25.4336H133.328V31.6445H134.328ZM133.828 24.9336H131.23V25.9336H133.828V24.9336ZM131.73 25.4336V20.1211H130.73V25.4336H131.73ZM131.23 20.6211H133.828V19.6211H131.23V20.6211ZM134.328 20.1211V11.7617H133.328V20.1211H134.328ZM133.828 12.2617H139.141V11.2617H133.828V12.2617ZM138.641 11.7617V20.1211H139.641V11.7617H138.641ZM139.141 20.6211H147.227V19.6211H139.141V20.6211ZM146.727 20.1211V25.4336H147.727V20.1211H146.727ZM147.227 24.9336H139.141V25.9336H147.227V24.9336ZM138.641 25.4336V31.6445H139.641V25.4336H138.641ZM138.641 31.6445C138.641 32.2682 138.757 32.8618 138.992 33.4206L139.914 33.0325C139.733 32.6018 139.641 32.1407 139.641 31.6445H138.641ZM138.994 33.425C139.227 33.9636 139.549 34.4397 139.959 34.8496L140.666 34.1425C140.347 33.8234 140.096 33.4531 139.912 33.0281L138.994 33.425ZM139.959 34.8496C140.369 35.2595 140.85 35.5865 141.397 35.8314L141.806 34.9186C141.364 34.7208 140.985 34.4618 140.666 34.1425L139.959 34.8496ZM141.408 35.8358C141.966 36.0711 142.56 36.1875 143.184 36.1875V35.1875C142.687 35.1875 142.226 35.0955 141.796 34.9142L141.408 35.8358ZM143.184 36.1875H147.227V35.1875H143.184V36.1875ZM146.727 35.6875V41H147.727V35.6875H146.727ZM147.227 40.5H143.184V41.5H147.227V40.5ZM158.555 35.8828L158.17 35.5635L157.694 36.1376L158.406 36.3601L158.555 35.8828ZM159.18 36.0195L159.118 36.5157L159.133 36.5176L159.148 36.5186L159.18 36.0195ZM162.656 35.2188L162.921 35.6428L162.925 35.6406L162.656 35.2188ZM163.789 34.2422L163.411 33.9147L163.41 33.9157L163.789 34.2422ZM164.609 32.9531L164.964 32.6005L164.449 32.083L164.152 32.7501L164.609 32.9531ZM168.516 36.8789L168.925 37.1667L169.166 36.8236L168.87 36.5262L168.516 36.8789ZM166.797 38.7734L166.471 38.3943L166.467 38.3976L166.797 38.7734ZM164.707 40.1992L164.477 39.7551L164.474 39.7568L164.707 40.1992ZM162.344 41.0781L162.23 40.5912L162.221 40.5935L162.344 41.0781ZM155.645 40.5703L155.449 41.0306L155.451 41.0313L155.645 40.5703ZM152.246 38.2852L151.89 38.6363L151.893 38.6387L152.246 38.2852ZM149.961 34.8086L149.499 34.9996L149.5 35.0012L149.961 34.8086ZM149.961 25.8242L149.498 25.6347L149.961 25.8242ZM152.246 22.3281L151.895 21.9722L151.893 21.9746L152.246 22.3281ZM155.645 20.082L155.455 19.6194L155.453 19.6201L155.645 20.082ZM164.727 20.4922L164.494 20.9347L164.497 20.9363L164.727 20.4922ZM166.836 21.9375L166.506 22.3129L166.51 22.3166L166.836 21.9375ZM168.555 23.832L168.939 24.1513L169.184 23.857L168.964 23.5443L168.555 23.832ZM161.289 24.8867L161.688 25.1876L162.093 24.6502L161.462 24.4175L161.289 24.8867ZM160.547 24.7109L160.492 25.2079L160.495 25.2082L160.547 24.7109ZM157.734 25.082L157.923 25.545L157.928 25.543L157.734 25.082ZM156.055 26.2148L155.696 25.866L155.692 25.871L156.055 26.2148ZM154.941 28.0117L155.406 28.1959L155.407 28.1929L154.941 28.0117ZM154.551 31.0195L154.051 31.0458L154.052 31.0589L154.054 31.0719L154.551 31.0195ZM154.648 31.7812L154.154 31.8554L154.156 31.8699L154.159 31.8843L154.648 31.7812ZM155.078 33.1289L154.644 33.377L155.021 34.036L155.477 33.4298L155.078 33.1289ZM158.406 36.3601C158.641 36.4337 158.879 36.4858 159.118 36.5157L159.242 35.5234C159.064 35.5012 158.885 35.4621 158.704 35.4056L158.406 36.3601ZM159.148 36.5186C159.367 36.5322 159.586 36.5391 159.805 36.5391V35.5391C159.607 35.5391 159.409 35.5329 159.211 35.5205L159.148 36.5186ZM159.805 36.5391C160.372 36.5391 160.921 36.461 161.451 36.3035L161.166 35.345C160.732 35.4739 160.279 35.5391 159.805 35.5391V36.5391ZM161.451 36.3035C161.975 36.1477 162.466 35.9276 162.921 35.6427L162.391 34.7948C162.014 35.0308 161.606 35.2143 161.166 35.345L161.451 36.3035ZM162.925 35.6406C163.395 35.3415 163.81 34.9841 164.168 34.5687L163.41 33.9157C163.117 34.2555 162.777 34.5491 162.388 34.7969L162.925 35.6406ZM164.167 34.5697C164.538 34.142 164.838 33.6704 165.066 33.1562L164.152 32.7501C163.964 33.1733 163.718 33.5611 163.411 33.9147L164.167 34.5697ZM164.255 33.3058L168.161 37.2316L168.87 36.5262L164.964 32.6005L164.255 33.3058ZM168.107 36.5912C167.636 37.2606 167.091 37.8614 166.471 38.3943L167.123 39.1525C167.805 38.5657 168.406 37.9035 168.925 37.1667L168.107 36.5912ZM166.467 38.3976C165.86 38.9307 165.197 39.3831 164.477 39.7551L164.937 40.6433C165.728 40.2341 166.458 39.7359 167.127 39.1493L166.467 38.3976ZM164.474 39.7568C163.77 40.1272 163.023 40.4055 162.23 40.5913L162.458 41.5649C163.332 41.3601 164.159 41.0525 164.94 40.6417L164.474 39.7568ZM162.221 40.5935C161.442 40.7913 160.637 40.8906 159.805 40.8906V41.8906C160.717 41.8906 161.605 41.7816 162.467 41.5627L162.221 40.5935ZM159.805 40.8906C158.397 40.8906 157.076 40.6294 155.838 40.1093L155.451 41.0313C156.817 41.605 158.27 41.8906 159.805 41.8906V40.8906ZM155.84 40.11C154.609 39.5879 153.53 38.8621 152.6 37.9316L151.893 38.6387C152.915 39.6613 154.102 40.459 155.449 41.0306L155.84 40.11ZM152.602 37.934C151.686 37.0057 150.959 35.9015 150.422 34.616L149.5 35.0012C150.083 36.3979 150.879 37.6115 151.89 38.6363L152.602 37.934ZM150.423 34.6175C149.891 33.3299 149.621 31.9112 149.621 30.3555H148.621C148.621 32.0289 148.911 33.579 149.499 34.9996L150.423 34.6175ZM149.621 30.3555C149.621 28.7591 149.891 27.314 150.424 26.0137L149.498 25.6347C148.911 27.0688 148.621 28.6446 148.621 30.3555H149.621ZM150.424 26.0137C150.961 24.7027 151.687 23.5945 152.6 22.6817L151.893 21.9746C150.878 22.9888 150.081 24.2114 149.498 25.6347L150.424 26.0137ZM152.597 22.684C153.527 21.7666 154.605 21.0536 155.836 20.544L155.453 19.6201C154.106 20.1782 152.918 20.9626 151.895 21.9722L152.597 22.684ZM155.834 20.5447C157.073 20.0366 158.395 19.7812 159.805 19.7812V18.7812C158.271 18.7812 156.82 19.0598 155.455 19.6194L155.834 20.5447ZM159.805 19.7812C160.637 19.7812 161.449 19.8806 162.242 20.0788L162.485 19.1087C161.611 18.8903 160.717 18.7812 159.805 18.7812V19.7812ZM162.242 20.0788C163.038 20.2777 163.788 20.5631 164.494 20.9346L164.959 20.0497C164.181 19.64 163.356 19.3265 162.485 19.1087L162.242 20.0788ZM164.497 20.9363C165.215 21.3078 165.885 21.7663 166.506 22.3129L167.166 21.5621C166.485 20.9628 165.748 20.4578 164.956 20.0481L164.497 20.9363ZM166.51 22.3166C167.13 22.8495 167.675 23.4504 168.146 24.1198L168.964 23.5443C168.445 22.8074 167.844 22.1452 167.162 21.5584L166.51 22.3166ZM168.17 23.5127L158.17 35.5635L158.939 36.2021L168.939 24.1513L168.17 23.5127ZM161.462 24.4175C161.178 24.3129 160.89 24.2443 160.599 24.2137L160.495 25.2082C160.698 25.2296 160.905 25.2782 161.116 25.3559L161.462 24.4175ZM160.602 24.214C160.348 24.1857 160.082 24.1719 159.805 24.1719V25.1719C160.049 25.1719 160.277 25.1841 160.492 25.2079L160.602 24.214ZM159.805 24.1719C159.011 24.1719 158.255 24.321 157.541 24.621L157.928 25.543C158.516 25.2962 159.14 25.1719 159.805 25.1719V24.1719ZM157.545 24.6191C156.844 24.9056 156.226 25.3221 155.696 25.866L156.413 26.5637C156.847 26.118 157.349 25.7793 157.923 25.545L157.545 24.6191ZM155.692 25.871C155.174 26.4176 154.77 27.0735 154.475 27.8305L155.407 28.1929C155.66 27.5437 155.998 27.0017 156.418 26.5587L155.692 25.871ZM154.477 27.8275C154.176 28.5856 154.031 29.4309 154.031 30.3555H155.031C155.031 29.5353 155.16 28.8181 155.406 28.1959L154.477 27.8275ZM154.031 30.3555C154.031 30.5615 154.038 30.7919 154.051 31.0458L155.05 30.9933C155.037 30.7524 155.031 30.5401 155.031 30.3555H154.031ZM154.054 31.0719C154.08 31.327 154.114 31.5882 154.154 31.8554L155.143 31.7071C155.105 31.4535 155.073 31.2069 155.048 30.9672L154.054 31.0719ZM154.159 31.8843C154.213 32.1416 154.274 32.3928 154.342 32.6377L155.306 32.3701C155.244 32.1463 155.188 31.9157 155.138 31.6782L154.159 31.8843ZM154.342 32.6377C154.417 32.9059 154.516 33.1536 154.644 33.377L155.512 32.8808C155.432 32.7397 155.362 32.5707 155.306 32.3701L154.342 32.6377ZM155.477 33.4298L161.688 25.1876L160.89 24.5858L154.679 32.828L155.477 33.4298Z" fill="#A0A0A0"/>
<path d="M193.52 41C192.23 41 191.02 40.7591 189.887 40.2773C188.754 39.7826 187.758 39.112 186.898 38.2656C186.052 37.4062 185.382 36.4102 184.887 35.2773C184.405 34.1445 184.164 32.9336 184.164 31.6445V25.4336H181.566V20.1211H184.164V11.7617H189.477V20.1211H197.562V25.4336H189.477V31.6445C189.477 32.2044 189.581 32.7318 189.789 33.2266C189.997 33.7083 190.284 34.1315 190.648 34.4961C191.013 34.8607 191.443 35.1536 191.938 35.375C192.432 35.5833 192.96 35.6875 193.52 35.6875H197.562V41H193.52ZM226.977 33.4414C226.977 34.5352 226.768 35.5703 226.352 36.5469C225.935 37.5104 225.362 38.3503 224.633 39.0664C223.917 39.7826 223.07 40.349 222.094 40.7656C221.13 41.1823 220.095 41.3906 218.988 41.3906C217.999 41.3906 217.048 41.2214 216.137 40.8828C215.225 40.5312 214.398 40.0234 213.656 39.3594C212.927 40.0234 212.107 40.5312 211.195 40.8828C210.297 41.2214 209.346 41.3906 208.344 41.3906C207.237 41.3906 206.202 41.1823 205.238 40.7656C204.275 40.349 203.428 39.7826 202.699 39.0664C201.983 38.3503 201.417 37.5104 201 36.5469C200.583 35.5703 200.375 34.5352 200.375 33.4414V20.1211H205.707V33.4414C205.707 33.806 205.772 34.151 205.902 34.4766C206.046 34.7891 206.234 35.069 206.469 35.3164C206.716 35.5508 206.996 35.7396 207.309 35.8828C207.634 36.013 207.979 36.0781 208.344 36.0781C208.708 36.0781 209.053 36.013 209.379 35.8828C209.704 35.7396 209.991 35.5508 210.238 35.3164C210.486 35.069 210.674 34.7891 210.805 34.4766C210.948 34.151 211.02 33.806 211.02 33.4414V20.1211H216.332V33.4414C216.332 33.806 216.404 34.151 216.547 34.4766C216.69 34.7891 216.879 35.069 217.113 35.3164C217.361 35.5508 217.641 35.7396 217.953 35.8828C218.279 36.013 218.624 36.0781 218.988 36.0781C219.353 36.0781 219.698 36.013 220.023 35.8828C220.349 35.7396 220.629 35.5508 220.863 35.3164C221.111 35.069 221.306 34.7891 221.449 34.4766C221.592 34.151 221.664 33.806 221.664 33.4414V20.1211H226.977V33.4414ZM251.059 30.3555C251.059 31.918 250.779 33.3763 250.219 34.7305C249.659 36.0716 248.897 37.237 247.934 38.2266C246.97 39.2031 245.837 39.9779 244.535 40.5508C243.246 41.1107 241.859 41.3906 240.375 41.3906C238.904 41.3906 237.517 41.1107 236.215 40.5508C234.926 39.9779 233.793 39.2031 232.816 38.2266C231.853 37.237 231.091 36.0716 230.531 34.7305C229.971 33.3763 229.691 31.918 229.691 30.3555C229.691 28.7669 229.971 27.2956 230.531 25.9414C231.091 24.5872 231.853 23.4219 232.816 22.4453C233.793 21.4557 234.926 20.681 236.215 20.1211C237.517 19.5612 238.904 19.2812 240.375 19.2812C241.859 19.2812 243.246 19.5482 244.535 20.082C245.837 20.6029 246.97 21.3516 247.934 22.3281C248.897 23.2917 249.659 24.457 250.219 25.8242C250.779 27.1784 251.059 28.6888 251.059 30.3555ZM245.688 30.3555C245.688 29.4961 245.544 28.7214 245.258 28.0312C244.984 27.3281 244.607 26.7292 244.125 26.2344C243.643 25.7266 243.077 25.3424 242.426 25.082C241.788 24.8086 241.104 24.6719 240.375 24.6719C239.646 24.6719 238.956 24.8086 238.305 25.082C237.667 25.3424 237.107 25.7266 236.625 26.2344C236.156 26.7292 235.785 27.3281 235.512 28.0312C235.238 28.7214 235.102 29.4961 235.102 30.3555C235.102 31.1628 235.238 31.9115 235.512 32.6016C235.785 33.2917 236.156 33.8906 236.625 34.3984C237.107 34.9062 237.667 35.3099 238.305 35.6094C238.956 35.8958 239.646 36.0391 240.375 36.0391C241.104 36.0391 241.788 35.9023 242.426 35.6289C243.077 35.3555 243.643 34.9714 244.125 34.4766C244.607 33.9818 244.984 33.3828 245.258 32.6797C245.544 31.9766 245.688 31.2018 245.688 30.3555Z" fill="#A3A3A3"/>
<path d="M189.887 40.2773L189.687 40.7356L189.691 40.7375L189.887 40.2773ZM186.898 38.2656L186.542 38.6165L186.548 38.6219L186.898 38.2656ZM184.887 35.2773L184.427 35.473L184.429 35.4775L184.887 35.2773ZM184.164 25.4336H184.664V24.9336H184.164V25.4336ZM181.566 25.4336H181.066V25.9336H181.566V25.4336ZM181.566 20.1211V19.6211H181.066V20.1211H181.566ZM184.164 20.1211V20.6211H184.664V20.1211H184.164ZM184.164 11.7617V11.2617H183.664V11.7617H184.164ZM189.477 11.7617H189.977V11.2617H189.477V11.7617ZM189.477 20.1211H188.977V20.6211H189.477V20.1211ZM197.562 20.1211H198.062V19.6211H197.562V20.1211ZM197.562 25.4336V25.9336H198.062V25.4336H197.562ZM189.477 25.4336V24.9336H188.977V25.4336H189.477ZM189.789 33.2266L189.328 33.4206L189.33 33.425L189.789 33.2266ZM190.648 34.4961L191.002 34.1425L190.648 34.4961ZM191.938 35.375L191.733 35.8315L191.743 35.8358L191.938 35.375ZM197.562 35.6875H198.062V35.1875H197.562V35.6875ZM197.562 41V41.5H198.062V41H197.562ZM193.52 40.5C192.294 40.5 191.15 40.2714 190.082 39.8172L189.691 40.7375C190.889 41.2468 192.166 41.5 193.52 41.5V40.5ZM190.087 39.8191C189.009 39.3482 188.064 38.7117 187.249 37.9094L186.548 38.6219C187.452 39.5122 188.499 40.2169 189.687 40.7355L190.087 39.8191ZM187.255 37.9148C186.452 37.1001 185.816 36.1554 185.345 35.0772L184.429 35.4775C184.947 36.6649 185.652 37.7124 186.542 38.6165L187.255 37.9148ZM185.347 35.0817C184.893 34.0136 184.664 32.8696 184.664 31.6445H183.664C183.664 32.9976 183.917 34.2754 184.427 35.473L185.347 35.0817ZM184.664 31.6445V25.4336H183.664V31.6445H184.664ZM184.164 24.9336H181.566V25.9336H184.164V24.9336ZM182.066 25.4336V20.1211H181.066V25.4336H182.066ZM181.566 20.6211H184.164V19.6211H181.566V20.6211ZM184.664 20.1211V11.7617H183.664V20.1211H184.664ZM184.164 12.2617H189.477V11.2617H184.164V12.2617ZM188.977 11.7617V20.1211H189.977V11.7617H188.977ZM189.477 20.6211H197.562V19.6211H189.477V20.6211ZM197.062 20.1211V25.4336H198.062V20.1211H197.062ZM197.562 24.9336H189.477V25.9336H197.562V24.9336ZM188.977 25.4336V31.6445H189.977V25.4336H188.977ZM188.977 31.6445C188.977 32.2682 189.093 32.8618 189.328 33.4206L190.25 33.0325C190.069 32.6018 189.977 32.1407 189.977 31.6445H188.977ZM189.33 33.425C189.563 33.9636 189.885 34.4397 190.295 34.8496L191.002 34.1425C190.683 33.8234 190.432 33.4531 190.248 33.0281L189.33 33.425ZM190.295 34.8496C190.705 35.2595 191.186 35.5865 191.733 35.8314L192.142 34.9186C191.7 34.7208 191.321 34.4618 191.002 34.1425L190.295 34.8496ZM191.743 35.8358C192.302 36.0711 192.896 36.1875 193.52 36.1875V35.1875C193.023 35.1875 192.562 35.0955 192.132 34.9142L191.743 35.8358ZM193.52 36.1875H197.562V35.1875H193.52V36.1875ZM197.062 35.6875V41H198.062V35.6875H197.062ZM197.562 40.5H193.52V41.5H197.562V40.5ZM226.352 36.5469L226.81 36.7453L226.811 36.7431L226.352 36.5469ZM224.633 39.0664L224.282 38.7097L224.279 38.7129L224.633 39.0664ZM222.094 40.7656L221.898 40.3057L221.895 40.3067L222.094 40.7656ZM216.137 40.8828L215.957 41.3493L215.963 41.3515L216.137 40.8828ZM213.656 39.3594L213.99 38.9868L213.653 38.6858L213.32 38.9897L213.656 39.3594ZM211.195 40.8828L211.372 41.3507L211.375 41.3493L211.195 40.8828ZM202.699 39.0664L202.346 39.42L202.349 39.4231L202.699 39.0664ZM201 36.5469L200.54 36.7431L200.541 36.7453L201 36.5469ZM200.375 20.1211V19.6211H199.875V20.1211H200.375ZM205.707 20.1211H206.207V19.6211H205.707V20.1211ZM205.902 34.4766L205.438 34.6623L205.443 34.6737L205.448 34.6849L205.902 34.4766ZM206.469 35.3164L206.106 35.6603L206.115 35.6701L206.125 35.6794L206.469 35.3164ZM207.309 35.8828L207.1 36.3373L207.111 36.3425L207.123 36.3471L207.309 35.8828ZM209.379 35.8828L209.565 36.3471L209.572 36.3439L209.58 36.3405L209.379 35.8828ZM210.238 35.3164L210.582 35.6795L210.592 35.67L210.238 35.3164ZM210.805 34.4766L210.347 34.2752L210.343 34.2843L210.805 34.4766ZM211.02 20.1211V19.6211H210.52V20.1211H211.02ZM216.332 20.1211H216.832V19.6211H216.332V20.1211ZM216.547 34.4766L216.089 34.678L216.092 34.6849L216.547 34.4766ZM217.113 35.3164L216.75 35.6603L216.76 35.6701L216.769 35.6794L217.113 35.3164ZM217.953 35.8828L217.745 36.3373L217.756 36.3425L217.767 36.3471L217.953 35.8828ZM220.023 35.8828L220.209 36.3471L220.217 36.3439L220.225 36.3405L220.023 35.8828ZM220.863 35.3164L220.51 34.9629L220.863 35.3164ZM221.449 34.4766L221.904 34.6849L221.907 34.6779L221.449 34.4766ZM221.664 20.1211V19.6211H221.164V20.1211H221.664ZM226.977 20.1211H227.477V19.6211H226.977V20.1211ZM226.477 33.4414C226.477 34.4698 226.281 35.438 225.892 36.3507L226.811 36.7431C227.255 35.7026 227.477 34.6005 227.477 33.4414H226.477ZM225.893 36.3484C225.501 37.2543 224.964 38.04 224.282 38.7097L224.983 39.4231C225.76 38.6605 226.369 37.7665 226.81 36.7453L225.893 36.3484ZM224.279 38.7129C223.61 39.3817 222.818 39.9129 221.898 40.3057L222.29 41.2255C223.322 40.785 224.223 40.1834 224.986 39.42L224.279 38.7129ZM221.895 40.3067C220.998 40.6948 220.031 40.8906 218.988 40.8906V41.8906C220.16 41.8906 221.263 41.6698 222.292 41.2246L221.895 40.3067ZM218.988 40.8906C218.057 40.8906 217.166 40.7316 216.311 40.4141L215.963 41.3515C216.931 41.7111 217.94 41.8906 218.988 41.8906V40.8906ZM216.317 40.4163C215.463 40.0869 214.688 39.6113 213.99 38.9868L213.323 39.732C214.109 40.4356 214.988 40.9756 215.957 41.3493L216.317 40.4163ZM213.32 38.9897C212.636 39.6125 211.868 40.0873 211.015 40.4163L211.375 41.3493C212.345 40.9752 213.218 40.4344 213.993 39.729L213.32 38.9897ZM211.019 40.4149C210.179 40.7313 209.289 40.8906 208.344 40.8906V41.8906C209.404 41.8906 210.414 41.7114 211.372 41.3507L211.019 40.4149ZM208.344 40.8906C207.301 40.8906 206.334 40.6948 205.437 40.3067L205.04 41.2246C206.069 41.6698 207.172 41.8906 208.344 41.8906V40.8906ZM205.437 40.3067C204.528 39.9138 203.734 39.3815 203.05 38.7097L202.349 39.4231C203.123 40.1836 204.021 40.7841 205.04 41.2246L205.437 40.3067ZM203.053 38.7129C202.383 38.0429 201.851 37.2562 201.459 36.3484L200.541 36.7453C200.982 37.7646 201.583 38.6576 202.346 39.42L203.053 38.7129ZM201.46 36.3507C201.07 35.438 200.875 34.4698 200.875 33.4414H199.875C199.875 34.6005 200.096 35.7026 200.54 36.7431L201.46 36.3507ZM200.875 33.4414V20.1211H199.875V33.4414H200.875ZM200.375 20.6211H205.707V19.6211H200.375V20.6211ZM205.207 20.1211V33.4414H206.207V20.1211H205.207ZM205.207 33.4414C205.207 33.867 205.283 34.2753 205.438 34.6623L206.367 34.2909C206.261 34.0268 206.207 33.745 206.207 33.4414H205.207ZM205.448 34.6849C205.614 35.0468 205.833 35.3727 206.106 35.6603L206.832 34.9725C206.635 34.7653 206.477 34.5313 206.357 34.2682L205.448 34.6849ZM206.125 35.6794C206.412 35.9518 206.738 36.1714 207.1 36.3373L207.517 35.4283C207.254 35.3077 207.02 35.1497 206.813 34.9534L206.125 35.6794ZM207.123 36.3471C207.51 36.5018 207.918 36.5781 208.344 36.5781V35.5781C208.04 35.5781 207.758 35.5242 207.494 35.4186L207.123 36.3471ZM208.344 36.5781C208.769 36.5781 209.178 36.5018 209.565 36.3471L209.193 35.4186C208.929 35.5242 208.647 35.5781 208.344 35.5781V36.5781ZM209.58 36.3405C209.956 36.1751 210.291 35.955 210.582 35.6794L209.894 34.9534C209.691 35.1466 209.453 35.304 209.178 35.4252L209.58 36.3405ZM210.592 35.67C210.884 35.378 211.11 35.0437 211.266 34.6689L210.343 34.2843C210.239 34.5344 210.088 34.7601 209.885 34.9629L210.592 35.67ZM211.262 34.6779C211.434 34.2873 211.52 33.8735 211.52 33.4414H210.52C210.52 33.7384 210.462 34.0148 210.347 34.2752L211.262 34.6779ZM211.52 33.4414V20.1211H210.52V33.4414H211.52ZM211.02 20.6211H216.332V19.6211H211.02V20.6211ZM215.832 20.1211V33.4414H216.832V20.1211H215.832ZM215.832 33.4414C215.832 33.8735 215.917 34.2873 216.089 34.6779L217.005 34.2752C216.89 34.0148 216.832 33.7384 216.832 33.4414H215.832ZM216.092 34.6849C216.258 35.0468 216.478 35.3727 216.75 35.6603L217.476 34.9725C217.28 34.7653 217.122 34.5313 217.001 34.2682L216.092 34.6849ZM216.769 35.6794C217.057 35.9518 217.383 36.1714 217.745 36.3373L218.161 35.4283C217.898 35.3077 217.664 35.1497 217.457 34.9534L216.769 35.6794ZM217.767 36.3471C218.154 36.5018 218.563 36.5781 218.988 36.5781V35.5781C218.685 35.5781 218.403 35.5242 218.139 35.4186L217.767 36.3471ZM218.988 36.5781C219.414 36.5781 219.822 36.5018 220.209 36.3471L219.838 35.4186C219.574 35.5242 219.292 35.5781 218.988 35.5781V36.5781ZM220.225 36.3405C220.603 36.1741 220.936 35.9513 221.217 35.67L220.51 34.9629C220.322 35.1503 220.095 35.3051 219.822 35.4252L220.225 36.3405ZM221.217 35.67C221.505 35.3813 221.735 35.0524 221.904 34.6849L220.995 34.2682C220.877 34.5257 220.716 34.7567 220.51 34.9629L221.217 35.67ZM221.907 34.6779C222.079 34.2873 222.164 33.8735 222.164 33.4414H221.164C221.164 33.7384 221.106 34.0148 220.992 34.2752L221.907 34.6779ZM222.164 33.4414V20.1211H221.164V33.4414H222.164ZM221.664 20.6211H226.977V19.6211H221.664V20.6211ZM226.477 20.1211V33.4414H227.477V20.1211H226.477ZM250.219 34.7305L250.68 34.9231L250.681 34.9215L250.219 34.7305ZM247.934 38.2266L248.29 38.5777L248.292 38.5754L247.934 38.2266ZM244.535 40.5508L244.734 41.0094L244.737 41.0084L244.535 40.5508ZM236.215 40.5508L236.012 41.0077L236.017 41.0101L236.215 40.5508ZM232.816 38.2266L232.458 38.5754L232.463 38.5801L232.816 38.2266ZM230.531 34.7305L230.069 34.9215L230.07 34.9231L230.531 34.7305ZM232.816 22.4453L232.461 22.0941L232.46 22.0941L232.816 22.4453ZM236.215 20.1211L236.017 19.6618L236.016 19.6625L236.215 20.1211ZM244.535 20.082L244.344 20.544L244.349 20.5463L244.535 20.082ZM247.934 22.3281L247.578 22.6793L247.58 22.6817L247.934 22.3281ZM250.219 25.8242L249.756 26.0137L249.757 26.0153L250.219 25.8242ZM245.258 28.0312L244.792 28.2125L244.796 28.2229L245.258 28.0312ZM244.125 26.2344L243.762 26.5785L243.767 26.5832L244.125 26.2344ZM242.426 25.082L242.229 25.5417L242.24 25.5463L242.426 25.082ZM238.305 25.082L238.494 25.545L238.498 25.543L238.305 25.082ZM236.625 26.2344L236.262 25.8902L236.262 25.8905L236.625 26.2344ZM235.512 28.0312L235.977 28.2154L235.978 28.2125L235.512 28.0312ZM236.625 34.3984L236.258 34.7376L236.262 34.7426L236.625 34.3984ZM238.305 35.6094L238.092 36.0621L238.103 36.067L238.305 35.6094ZM242.426 35.6289L242.232 35.1679L242.229 35.1693L242.426 35.6289ZM245.258 32.6797L244.795 32.491L244.792 32.4985L245.258 32.6797ZM250.559 30.3555C250.559 31.8568 250.29 33.2498 249.757 34.5394L250.681 34.9215C251.267 33.5028 251.559 31.9791 251.559 30.3555H250.559ZM249.757 34.5378C249.22 35.824 248.493 36.9356 247.575 37.8778L248.292 38.5754C249.302 37.5384 250.097 36.3193 250.68 34.9231L249.757 34.5378ZM247.578 37.8754C246.66 38.8054 245.58 39.5447 244.334 40.0931L244.737 41.0084C246.094 40.4111 247.28 39.6009 248.29 38.5777L247.578 37.8754ZM244.336 40.0922C243.113 40.6232 241.795 40.8906 240.375 40.8906V41.8906C241.924 41.8906 243.379 41.5981 244.734 41.0094L244.336 40.0922ZM240.375 40.8906C238.969 40.8906 237.65 40.6235 236.412 40.0914L236.017 41.0101C237.384 41.5979 238.838 41.8906 240.375 41.8906V40.8906ZM236.418 40.0939C235.184 39.5453 234.102 38.8052 233.17 37.873L232.463 38.5801C233.484 39.601 234.668 40.4104 236.012 41.0077L236.418 40.0939ZM233.175 37.8778C232.257 36.9356 231.53 35.824 230.993 34.5378L230.07 34.9231C230.653 36.3193 231.448 37.5384 232.458 38.5754L233.175 37.8778ZM230.993 34.5394C230.46 33.2498 230.191 31.8568 230.191 30.3555H229.191C229.191 31.9791 229.483 33.5028 230.069 34.9215L230.993 34.5394ZM230.191 30.3555C230.191 28.8269 230.461 27.4211 230.993 26.1325L230.069 25.7504C229.482 27.17 229.191 28.7069 229.191 30.3555H230.191ZM230.993 26.1325C231.53 24.8339 232.257 23.724 233.172 22.7965L232.46 22.0941C231.449 23.1198 230.652 24.3406 230.069 25.7504L230.993 26.1325ZM233.172 22.7965C234.103 21.8529 235.183 21.1144 236.414 20.5797L236.016 19.6625C234.669 20.2476 233.482 21.0585 232.461 22.0941L233.172 22.7965ZM236.412 20.5804C237.65 20.0484 238.969 19.7812 240.375 19.7812V18.7812C238.838 18.7812 237.384 19.074 236.017 19.6618L236.412 20.5804ZM240.375 19.7812C241.798 19.7812 243.119 20.0368 244.344 20.544L244.726 19.6201C243.373 19.0595 241.921 18.7812 240.375 18.7812V19.7812ZM244.349 20.5463C245.589 21.0421 246.664 21.7528 247.578 22.6793L248.29 21.977C247.277 20.9503 246.085 20.1636 244.721 19.6178L244.349 20.5463ZM247.58 22.6817C248.493 23.5945 249.219 24.7027 249.756 26.0137L250.681 25.6347C250.099 24.2114 249.301 22.9888 248.287 21.9746L247.58 22.6817ZM249.757 26.0153C250.288 27.3011 250.559 28.7454 250.559 30.3555H251.559C251.559 28.6322 251.269 27.0557 250.681 25.6332L249.757 26.0153ZM246.188 30.3555C246.188 29.4401 246.035 28.5989 245.72 27.8396L244.796 28.2229C245.054 28.8439 245.188 29.5521 245.188 30.3555H246.188ZM245.724 27.85C245.428 27.0902 245.016 26.4327 244.483 25.8856L243.767 26.5832C244.198 27.0256 244.54 27.5661 244.792 28.2125L245.724 27.85ZM244.488 25.8902C243.956 25.33 243.329 24.905 242.611 24.6178L242.24 25.5463C242.824 25.7799 243.33 26.1231 243.762 26.5785L244.488 25.8902ZM242.623 24.6225C241.919 24.321 241.168 24.1719 240.375 24.1719V25.1719C241.04 25.1719 241.656 25.2962 242.229 25.5416L242.623 24.6225ZM240.375 24.1719C239.582 24.1719 238.825 24.321 238.111 24.621L238.498 25.543C239.086 25.2962 239.71 25.1719 240.375 25.1719V24.1719ZM238.116 24.6191C237.411 24.9068 236.792 25.3318 236.262 25.8902L236.988 26.5785C237.421 26.1213 237.922 25.7781 238.494 25.545L238.116 24.6191ZM236.262 25.8905C235.744 26.4371 235.34 27.093 235.046 27.85L235.978 28.2125C236.23 27.5633 236.568 27.0212 236.988 26.5782L236.262 25.8905ZM235.047 27.8471C234.747 28.6043 234.602 29.4428 234.602 30.3555H235.602C235.602 29.5493 235.73 28.8384 235.977 28.2154L235.047 27.8471ZM234.602 30.3555C234.602 31.2203 234.748 32.0321 235.047 32.7857L235.977 32.4174C235.728 31.7908 235.602 31.1052 235.602 30.3555H234.602ZM235.047 32.7857C235.341 33.5288 235.744 34.1813 236.258 34.7376L236.992 34.0593C236.568 33.6 236.229 33.0545 235.977 32.4174L235.047 32.7857ZM236.262 34.7426C236.787 35.2959 237.398 35.7362 238.092 36.062L238.517 35.1568C237.935 34.8836 237.426 34.5166 236.988 34.0543L236.262 34.7426ZM238.103 36.067C238.819 36.3821 239.578 36.5391 240.375 36.5391V35.5391C239.713 35.5391 239.092 35.4095 238.506 35.1517L238.103 36.067ZM240.375 36.5391C241.168 36.5391 241.919 36.3899 242.623 36.0885L242.229 35.1693C241.656 35.4148 241.04 35.5391 240.375 35.5391V36.5391ZM242.619 36.0899C243.331 35.7911 243.954 35.3693 244.483 34.8254L243.767 34.1278C243.333 34.5734 242.823 34.9199 242.232 35.1679L242.619 36.0899ZM244.483 34.8254C245.016 34.2782 245.428 33.6207 245.724 32.8609L244.792 32.4985C244.54 33.1449 244.198 33.6853 243.767 34.1278L244.483 34.8254ZM245.721 32.8683C246.034 32.0988 246.188 31.2591 246.188 30.3555H245.188C245.188 31.1446 245.054 31.8543 244.795 32.491L245.721 32.8683Z" fill="#A0A0A0"/>
<path d="M97.0195 60.0566C97.0195 60.7207 96.9316 61.362 96.7559 61.9805C96.5866 62.5924 96.3457 63.1686 96.0332 63.709C95.7207 64.2428 95.3431 64.7311 94.9004 65.1738C94.4577 65.6165 93.9694 65.9974 93.4355 66.3164C92.9017 66.6289 92.3255 66.8698 91.707 67.0391C91.0885 67.2148 90.4473 67.3027 89.7832 67.3027C89.1191 67.3027 88.4779 67.2148 87.8594 67.0391C87.2474 66.8698 86.6712 66.6289 86.1309 66.3164C85.597 65.9974 85.1087 65.6165 84.666 65.1738C84.2233 64.7311 83.8424 64.2428 83.5234 63.709C83.2109 63.1686 82.9668 62.5924 82.791 61.9805C82.6217 61.362 82.5371 60.7207 82.5371 60.0566C82.5371 59.3926 82.6217 58.7513 82.791 58.1328C82.9668 57.5143 83.2109 56.9382 83.5234 56.4043C83.8424 55.8704 84.2233 55.3822 84.666 54.9395C85.1087 54.4967 85.597 54.1191 86.1309 53.8066C86.6712 53.4941 87.2474 53.2533 87.8594 53.084C88.4779 52.9082 89.1191 52.8203 89.7832 52.8203C90.4473 52.8203 91.0885 52.9082 91.707 53.084C92.3255 53.2533 92.9017 53.4941 93.4355 53.8066C93.9694 54.1191 94.4577 54.4967 94.9004 54.9395C95.3431 55.3822 95.7207 55.8704 96.0332 56.4043C96.3457 56.9382 96.5866 57.5143 96.7559 58.1328C96.9316 58.7513 97.0195 59.3926 97.0195 60.0566ZM94.2363 60.0566C94.2363 59.4447 94.1191 58.8685 93.8848 58.3281C93.6504 57.7812 93.3314 57.3092 92.9277 56.9121C92.5306 56.5085 92.0586 56.1895 91.5117 55.9551C90.9714 55.7207 90.3952 55.6035 89.7832 55.6035C89.1647 55.6035 88.5853 55.7207 88.0449 55.9551C87.5046 56.1895 87.0326 56.5085 86.6289 56.9121C86.2253 57.3092 85.9062 57.7812 85.6719 58.3281C85.4375 58.8685 85.3203 59.4447 85.3203 60.0566C85.3203 60.6686 85.4375 61.2448 85.6719 61.7852C85.9062 62.319 86.2253 62.7878 86.6289 63.1914C87.0326 63.5951 87.5046 63.9141 88.0449 64.1484C88.5853 64.3828 89.1647 64.5 89.7832 64.5C90.3952 64.5 90.9714 64.3828 91.5117 64.1484C92.0586 63.9141 92.5306 63.5951 92.9277 63.1914C93.3314 62.7878 93.6504 62.319 93.8848 61.7852C94.1191 61.2448 94.2363 60.6686 94.2363 60.0566ZM101.248 67H98.582V56.541H99.2266L100.105 57.5566C100.535 57.166 101.02 56.8665 101.561 56.6582C102.107 56.4434 102.677 56.3359 103.27 56.3359C103.908 56.3359 104.51 56.4596 105.076 56.707C105.643 56.9479 106.137 57.2832 106.561 57.7129C106.984 58.1361 107.316 58.6341 107.557 59.207C107.804 59.7734 107.928 60.3789 107.928 61.0234V67H105.262V61.0234C105.262 60.75 105.21 60.4928 105.105 60.252C105.001 60.0046 104.858 59.7897 104.676 59.6074C104.493 59.4251 104.282 59.2819 104.041 59.1777C103.8 59.0736 103.543 59.0215 103.27 59.0215C102.99 59.0215 102.726 59.0736 102.479 59.1777C102.231 59.2819 102.016 59.4251 101.834 59.6074C101.652 59.7897 101.508 60.0046 101.404 60.252C101.3 60.4928 101.248 60.75 101.248 61.0234V67ZM112.518 67H109.832V52.3809H112.518V67ZM117.703 53.6992C117.703 53.9466 117.654 54.1777 117.557 54.3926C117.465 54.6074 117.339 54.7962 117.176 54.959C117.013 55.1152 116.821 55.2422 116.6 55.3398C116.385 55.431 116.154 55.4766 115.906 55.4766C115.659 55.4766 115.424 55.431 115.203 55.3398C114.988 55.2422 114.799 55.1152 114.637 54.959C114.48 54.7962 114.354 54.6074 114.256 54.3926C114.165 54.1777 114.119 53.9466 114.119 53.6992C114.119 53.4583 114.165 53.2305 114.256 53.0156C114.354 52.7943 114.48 52.6055 114.637 52.4492C114.799 52.2865 114.988 52.1595 115.203 52.0684C115.424 51.9707 115.659 51.9219 115.906 51.9219C116.154 51.9219 116.385 51.9707 116.6 52.0684C116.821 52.1595 117.013 52.2865 117.176 52.4492C117.339 52.6055 117.465 52.7943 117.557 53.0156C117.654 53.2305 117.703 53.4583 117.703 53.6992ZM117.244 67H114.559V56.541H117.244V67ZM121.951 67H119.285V56.541H119.93L120.809 57.5566C121.238 57.166 121.723 56.8665 122.264 56.6582C122.811 56.4434 123.38 56.3359 123.973 56.3359C124.611 56.3359 125.213 56.4596 125.779 56.707C126.346 56.9479 126.84 57.2832 127.264 57.7129C127.687 58.1361 128.019 58.6341 128.26 59.207C128.507 59.7734 128.631 60.3789 128.631 61.0234V67H125.965V61.0234C125.965 60.75 125.913 60.4928 125.809 60.252C125.704 60.0046 125.561 59.7897 125.379 59.6074C125.197 59.4251 124.985 59.2819 124.744 59.1777C124.503 59.0736 124.246 59.0215 123.973 59.0215C123.693 59.0215 123.429 59.0736 123.182 59.1777C122.934 59.2819 122.719 59.4251 122.537 59.6074C122.355 59.7897 122.212 60.0046 122.107 60.252C122.003 60.4928 121.951 60.75 121.951 61.0234V67ZM134.695 64.4414C134.799 64.474 134.904 64.4967 135.008 64.5098C135.112 64.5163 135.216 64.5195 135.32 64.5195C135.581 64.5195 135.831 64.4837 136.072 64.4121C136.313 64.3405 136.538 64.2396 136.746 64.1094C136.961 63.9727 137.15 63.8099 137.312 63.6211C137.482 63.4258 137.618 63.2109 137.723 62.9766L139.676 64.9395C139.428 65.291 139.142 65.6068 138.816 65.8867C138.497 66.1667 138.149 66.4043 137.771 66.5996C137.4 66.7949 137.007 66.9414 136.59 67.0391C136.18 67.1432 135.757 67.1953 135.32 67.1953C134.585 67.1953 133.891 67.0586 133.24 66.7852C132.596 66.5117 132.029 66.1309 131.541 65.6426C131.059 65.1543 130.678 64.5749 130.398 63.9043C130.118 63.2272 129.979 62.485 129.979 61.6777C129.979 60.8509 130.118 60.0957 130.398 59.4121C130.678 58.7285 131.059 58.1458 131.541 57.6641C132.029 57.1823 132.596 56.8079 133.24 56.541C133.891 56.2741 134.585 56.1406 135.32 56.1406C135.757 56.1406 136.183 56.1927 136.6 56.2969C137.016 56.401 137.41 56.5508 137.781 56.7461C138.159 56.9414 138.51 57.1823 138.836 57.4688C139.161 57.7487 139.448 58.0645 139.695 58.416L134.695 64.4414ZM136.062 58.9434C135.939 58.8978 135.815 58.8685 135.691 58.8555C135.574 58.8424 135.451 58.8359 135.32 58.8359C134.956 58.8359 134.611 58.9043 134.285 59.041C133.966 59.1712 133.686 59.36 133.445 59.6074C133.211 59.8548 133.025 60.1543 132.889 60.5059C132.752 60.8509 132.684 61.2415 132.684 61.6777C132.684 61.7754 132.687 61.8861 132.693 62.0098C132.706 62.1335 132.723 62.2604 132.742 62.3906C132.768 62.5143 132.798 62.6348 132.83 62.752C132.863 62.8691 132.905 62.9733 132.957 63.0645L136.062 58.9434ZM152.811 67H150.018V55.7988H145.809V52.9961H157.01V55.7988H152.811V67ZM164.451 65.7793C164.236 65.9746 164.005 66.1602 163.758 66.3359C163.517 66.5052 163.263 66.6549 162.996 66.7852C162.729 66.9089 162.452 67.0065 162.166 67.0781C161.886 67.1562 161.6 67.1953 161.307 67.1953C160.662 67.1953 160.057 67.0814 159.49 66.8535C158.924 66.6257 158.426 66.3034 157.996 65.8867C157.573 65.4635 157.238 64.9525 156.99 64.3535C156.749 63.748 156.629 63.071 156.629 62.3223V56.541H159.285V62.3223C159.285 62.6738 159.337 62.9896 159.441 63.2695C159.552 63.543 159.699 63.7741 159.881 63.9629C160.063 64.1517 160.275 64.2949 160.516 64.3926C160.763 64.4902 161.027 64.5391 161.307 64.5391C161.58 64.5391 161.837 64.4772 162.078 64.3535C162.326 64.2233 162.54 64.054 162.723 63.8457C162.905 63.6374 163.048 63.403 163.152 63.1426C163.257 62.8757 163.309 62.6022 163.309 62.3223V56.541H165.975V67H165.33L164.451 65.7793ZM173.26 67C172.615 67 172.01 66.8796 171.443 66.6387C170.877 66.3913 170.379 66.056 169.949 65.6328C169.526 65.2031 169.191 64.7051 168.943 64.1387C168.702 63.5723 168.582 62.9668 168.582 62.3223V59.2168H167.283V56.5605H168.582V52.3809H171.238V56.5605H175.281V59.2168H171.238V62.3223C171.238 62.6022 171.29 62.8659 171.395 63.1133C171.499 63.3542 171.642 63.5658 171.824 63.748C172.007 63.9303 172.221 64.0768 172.469 64.1875C172.716 64.2917 172.98 64.3438 173.26 64.3438H175.281V67H173.26ZM186.893 61.6777C186.893 62.459 186.753 63.1882 186.473 63.8652C186.193 64.5358 185.812 65.1185 185.33 65.6133C184.848 66.1016 184.282 66.4889 183.631 66.7754C182.986 67.0553 182.293 67.1953 181.551 67.1953C180.815 67.1953 180.122 67.0553 179.471 66.7754C178.826 66.4889 178.26 66.1016 177.771 65.6133C177.29 65.1185 176.909 64.5358 176.629 63.8652C176.349 63.1882 176.209 62.459 176.209 61.6777C176.209 60.8835 176.349 60.1478 176.629 59.4707C176.909 58.7936 177.29 58.2109 177.771 57.7227C178.26 57.2279 178.826 56.8405 179.471 56.5605C180.122 56.2806 180.815 56.1406 181.551 56.1406C182.293 56.1406 182.986 56.2741 183.631 56.541C184.282 56.8014 184.848 57.1758 185.33 57.6641C185.812 58.1458 186.193 58.7285 186.473 59.4121C186.753 60.0892 186.893 60.8444 186.893 61.6777ZM184.207 61.6777C184.207 61.248 184.135 60.8607 183.992 60.5156C183.855 60.1641 183.667 59.8646 183.426 59.6172C183.185 59.3633 182.902 59.1712 182.576 59.041C182.257 58.9043 181.915 58.8359 181.551 58.8359C181.186 58.8359 180.841 58.9043 180.516 59.041C180.197 59.1712 179.917 59.3633 179.676 59.6172C179.441 59.8646 179.256 60.1641 179.119 60.5156C178.982 60.8607 178.914 61.248 178.914 61.6777C178.914 62.0814 178.982 62.4557 179.119 62.8008C179.256 63.1458 179.441 63.4453 179.676 63.6992C179.917 63.9531 180.197 64.1549 180.516 64.3047C180.841 64.4479 181.186 64.5195 181.551 64.5195C181.915 64.5195 182.257 64.4512 182.576 64.3145C182.902 64.1777 183.185 63.9857 183.426 63.7383C183.667 63.4909 183.855 63.1914 183.992 62.8398C184.135 62.4883 184.207 62.1009 184.207 61.6777ZM191.033 67H188.367V56.541H189.012L189.891 57.7812C190.32 57.3906 190.809 57.0911 191.355 56.8828C191.902 56.668 192.469 56.5605 193.055 56.5605H195.408V59.2168H193.055C192.775 59.2168 192.511 59.2689 192.264 59.373C192.016 59.4772 191.801 59.6204 191.619 59.8027C191.437 59.985 191.294 60.1999 191.189 60.4473C191.085 60.6947 191.033 60.9583 191.033 61.2383V67ZM202.273 67H196.18V64.3438H202.273C202.456 64.3438 202.612 64.2786 202.742 64.1484C202.872 64.0182 202.938 63.862 202.938 63.6797C202.938 63.4909 202.872 63.3672 202.742 63.3086C202.612 63.25 202.456 63.2207 202.273 63.2207H199.5C199.038 63.2207 198.605 63.1328 198.201 62.957C197.798 62.7812 197.446 62.5436 197.146 62.2441C196.847 61.9382 196.609 61.5833 196.434 61.1797C196.264 60.776 196.18 60.3431 196.18 59.8809C196.18 59.4186 196.264 58.9857 196.434 58.582C196.609 58.1784 196.847 57.8268 197.146 57.5273C197.446 57.2279 197.798 56.9935 198.201 56.8242C198.605 56.6484 199.038 56.5605 199.5 56.5605H204.9V59.2168H199.5C199.318 59.2168 199.161 59.2819 199.031 59.4121C198.901 59.5423 198.836 59.6986 198.836 59.8809C198.836 60.0697 198.901 60.2324 199.031 60.3691C199.161 60.4993 199.318 60.5645 199.5 60.5645H202.273C202.729 60.5645 203.159 60.6426 203.562 60.7988C203.966 60.9486 204.318 61.1602 204.617 61.4336C204.917 61.707 205.154 62.0358 205.33 62.4199C205.506 62.804 205.594 63.224 205.594 63.6797C205.594 64.1419 205.506 64.5749 205.33 64.9785C205.154 65.3757 204.917 65.7272 204.617 66.0332C204.318 66.3327 203.966 66.5703 203.562 66.7461C203.159 66.9154 202.729 67 202.273 67Z" fill="#A09898"/>
<defs>
<linearGradient id="paint0_linear" x1="-12.0212" y1="29.6694" x2="114.841" y2="32.7386" gradientUnits="userSpaceOnUse">
<stop stop-color="#7987FF"/>
<stop offset="1" stop-color="#816E2C"/>
</linearGradient>
</defs>
</svg>
